<svg width="892" height="167" viewBox="0 0 892 167" fill="none" xmlns="http://www.w3.org/2000/svg">
<g clip-path="url(#clip0_87_4788)">
<mask id="mask0_87_4788" style="mask-type:luminance" maskUnits="userSpaceOnUse" x="121" y="22" width="121" height="122">
<path d="M241.833 22.9165H121V143.75H241.833V22.9165Z" fill="white"/>
</mask>
<g mask="url(#mask0_87_4788)">
<path d="M196.724 101.71C206.019 93.6089 206.786 81.3295 201.67 74.337C197.576 68.7089 194.677 64.8716 186.917 59.4993C181.374 55.5767 178.816 56.5147 176.855 59.0729L176.684 59.3288C174.467 62.9103 177.708 65.8949 181.204 69.4764C185.041 73.399 191.096 82.7791 185.553 89.4305C180.522 95.485 172.335 90.3685 168.498 87.1281C163.979 83.4613 159.63 79.5387 157.242 82.5233L156.986 82.7791C154.769 85.5932 156.474 90.9654 159.033 94.2058C166.707 103.927 181.971 114.501 196.638 101.625" fill="#C0573B"/>
</g>
</g>
<g clip-path="url(#clip1_87_4788)">
<mask id="mask1_87_4788" style="mask-type:luminance" maskUnits="userSpaceOnUse" x="241" y="22" width="122" height="122">
<path d="M362.666 22.9165H241.833V143.75H362.666V22.9165Z" fill="white"/>
</mask>
<g mask="url(#mask1_87_4788)">
<path d="M345.782 70.3288C343.224 58.9874 329.58 54.2973 320.711 55.2353C311.161 56.3439 306.641 61.1192 304.254 65.0418C303.401 66.4915 303.145 68.197 302.207 69.8172C301.525 70.8405 299.478 71.0963 298.54 71.0963C294.532 71.0963 291.633 71.6932 288.393 73.1429C286.431 74.0809 284.129 72.887 283.873 72.7165C280.036 71.0963 278.586 69.6466 272.02 70.1583C261.617 70.9257 254.88 83.0347 256.33 90.1977C257.779 97.446 260.593 100.857 263.919 103.245C267.245 105.632 275.005 110.237 284.214 105.376C288.478 103.159 292.23 98.4693 293.765 94.8025C294.362 93.4381 295.3 92.2443 296.749 91.7326C299.564 90.7093 305.618 89.3449 309.967 93.1823C313.89 96.5932 319.432 97.9576 325.06 97.446C333.417 96.7638 339.983 95.1436 344.418 86.1898C346.805 81.3292 347.573 77.4066 345.867 70.2436M279.95 93.7792C275.687 96.4227 270.485 93.9497 269.291 89.9419C268.183 85.934 273.299 80.3912 279.012 82.6083C284.129 84.5696 284.129 91.221 279.95 93.8645M295.811 83.9727C293.68 83.461 292.742 79.8795 294.532 78.6857C295.385 78.0888 296.579 77.4066 300.672 78.4299C301.098 78.5151 301.781 78.9415 302.122 79.5384C302.548 80.2206 303.486 83.0347 301.013 83.5463C299.308 83.8874 297.346 84.3138 295.726 83.8874M332.991 79.9648C330.944 87.2984 320.456 88.2364 315.424 82.7788C310.393 77.3213 313.207 69.7319 319.347 67.6001C325.487 65.4682 335.293 71.7785 332.991 80.0501" fill="#50C7BE"/>
</g>
</g>
<g clip-path="url(#clip2_87_4788)">
<mask id="mask2_87_4788" style="mask-type:luminance" maskUnits="userSpaceOnUse" x="529" y="22" width="122" height="122">
<path d="M650.167 22.9165H529.333V143.75H650.167V22.9165Z" fill="white"/>
</mask>
<g mask="url(#mask2_87_4788)">
<path d="M610.941 90.1123C612.817 84.9958 613.073 81.0732 610.685 74.0808C606.933 63.0804 592.351 58.4756 584.165 61.8013C575.893 65.127 570.862 69.1349 568.815 73.3133C566.854 77.4917 567.281 89.089 571.8 95.5698C576.405 102.051 584.676 105.035 592.863 103.415C601.049 101.795 607.445 99.5777 610.856 90.1123M581.777 89.7712C576.149 84.9106 578.196 76.9801 584.08 74.2513C589.963 71.5225 600.367 76.7243 599.003 85.0811C597.809 92.5852 587.405 94.6318 581.777 89.7712Z" fill="#373B38"/>
</g>
</g>
<g clip-path="url(#clip3_87_4788)">
<mask id="mask3_87_4788" style="mask-type:luminance" maskUnits="userSpaceOnUse" x="650" y="22" width="121" height="122">
<path d="M771 22.9165H650.167V143.75H771V22.9165Z" fill="white"/>
</mask>
<g mask="url(#mask3_87_4788)">
<path d="M731.177 97.2753C728.278 104.865 694.509 116.036 691.61 107.508C688.71 98.8955 713.44 94.9729 714.889 87.8099C716.254 81.1585 688.369 55.2352 694.68 50.6304C701.331 45.8551 737.743 80.05 731.177 97.2753Z" fill="#C0573B"/>
</g>
</g>
<g clip-path="url(#clip4_87_4788)">
<mask id="mask4_87_4788" style="mask-type:luminance" maskUnits="userSpaceOnUse" x="362" y="0" width="168" height="167">
<path d="M529.334 0H362.667V166.667H529.334V0Z" fill="white"/>
</mask>
<g mask="url(#mask4_87_4788)">
<path d="M486.418 32.9804C469.957 19.9881 447.382 14.8734 428.217 23.8681C407.229 31.4519 393.59 45.0322 386.888 67.6071C383.831 75.5436 383.125 85.0087 385.359 93.3567C387.887 105.82 391.356 118.342 398.763 128.806C401.35 132.275 405.348 134.509 408.757 136.861C415.636 141.035 422.808 144.679 430.568 147.325C442.326 150.97 455.318 150.088 466.958 146.208C484.595 140.094 502.173 119.753 509.404 101.822C516.518 84.4208 512.285 67.1956 502.467 52.2044C498.763 44.8558 492.943 38.1539 486.418 32.9804Z" fill="#FFCB5A"/>
<path d="M495.471 33.7447C480.656 20.8111 459.198 12.9922 439.621 16.931C427.158 20.1644 413.46 25.2203 402.702 33.0392C392.179 40.9169 384.066 53.2038 380.186 65.4319C376.717 74.4266 376.012 81.9516 378.363 91.3578C381.067 104.468 385.183 118.342 393.06 129.1C396 132.393 400.35 133.568 404.054 135.861C419.868 144.915 436.623 152.498 455.318 148.559C464.195 147.09 473.248 144.797 480.303 140.035C501.056 125.161 523.043 101.234 519.163 73.8975C517.458 63.1391 511.226 52.6747 504.23 44.0327C501.644 40.329 498.763 36.8605 495.471 33.7447ZM486.241 127.043C467.781 144.562 454.612 139.212 433.684 137.742C412.755 136.273 402.525 130.923 393.296 107.584C384.066 84.2444 392.296 57.9657 399.645 47.2661C406.993 36.5665 427.687 18.1656 452.202 21.9869C464.842 23.9269 471.191 25.3966 481.42 32.2162C491.649 39.0357 506.699 49.7353 509.169 69.6647C511.579 89.5942 504.818 109.582 486.3 127.102" fill="#50C7BE"/>
<path d="M416.047 87.1837C415.812 84.3619 416.047 81.54 416.635 78.7769C416.753 78.2478 416.459 77.7187 415.93 77.6011C415.401 77.4836 414.813 77.3072 414.284 77.1896C413.343 77.072 408.993 75.6023 404.936 73.8386C404.29 73.5447 403.584 73.9562 403.525 74.6617C403.231 78.5418 403.29 83.0097 403.761 87.5365C403.761 88.0656 404.29 88.4183 404.878 88.4183C409.522 88.5947 411.638 88.1244 414.989 88.3007C415.577 88.3007 416.106 87.8304 416.047 87.1837Z" fill="#373B38"/>
<path d="M425.865 61.552C426.336 61.9635 426.865 62.1398 427.335 61.7871C428.628 60.7877 430.039 59.9059 431.509 59.1416C432.567 58.6125 433.684 58.201 434.86 57.8483C435.448 57.6719 435.742 57.084 435.566 56.5549C435.448 56.2022 435.33 55.8494 435.213 55.5555C434.684 54.5561 432.92 48.3244 432.273 43.2686C432.215 42.6219 431.45 42.2104 430.804 42.5043C425.924 44.9147 421.75 47.4426 418.223 50.0881C417.752 50.4408 417.811 51.0875 418.164 51.6166C419.751 54.3797 422.338 58.3774 425.924 61.552" fill="#373B38"/>
<path d="M442.502 128.512C443.208 124.103 444.031 120.223 443.913 114.697C443.913 114.109 443.619 113.58 443.031 113.521C440.386 113.286 437.682 112.698 435.154 111.758C434.625 111.581 434.037 111.816 433.86 112.345C433.449 113.58 432.92 114.756 432.449 115.99C432.214 116.872 430.274 121.046 427.981 124.809C427.687 125.338 427.864 126.043 428.452 126.278C432.508 128.042 436.917 129.159 441.444 129.512C442.032 129.512 442.444 129.042 442.502 128.454" fill="#373B38"/>
<path d="M477.599 87.713C478.716 87.5954 485.124 89.1827 490.533 89.4179C491.121 89.4179 491.709 89.1239 491.767 88.5361C492.238 83.8329 491.885 78.9535 490.474 73.0158C490.298 72.3691 489.592 72.0751 489.004 72.3691C484.066 75.0734 478.481 76.308 472.896 77.3662C472.308 77.4837 471.956 78.0716 472.132 78.6595C472.955 81.1874 473.425 83.8329 473.484 86.7136C473.484 87.2427 473.954 87.713 474.484 87.713C475.542 87.713 476.541 87.713 477.599 87.713Z" fill="#373B38"/>
<path d="M460.786 69.2532C448.44 57.907 425.924 62.9628 423.396 80.5407C420.633 100.235 443.443 112.287 456.2 105.702C468.957 99.118 473.131 80.5995 460.786 69.2532Z" fill="#50C7BE"/>
<path d="M455.318 75.485C447.852 68.7242 434.272 71.7225 432.743 82.1869C431.039 93.9447 444.854 101.058 452.555 97.1781C460.257 93.2392 462.785 82.2457 455.318 75.485Z" fill="#F7F0E5"/>
<path d="M478.422 52.1455C475.189 57.6716 470.251 61.9044 465.254 65.7845C464.783 66.1372 464.725 66.8427 465.136 67.2542C467.017 69.1943 468.663 71.3695 470.016 73.721C470.309 74.1913 470.897 74.3677 471.368 74.1325C472.426 73.5447 477.482 72.0749 478.54 71.5458C479.657 70.7816 483.831 68.3712 488.946 67.5482C488.828 67.1367 488.71 66.7251 488.534 66.2548C486.77 60.6699 483.772 55.908 480.01 51.9103C479.539 51.44 478.775 51.5576 478.422 52.1455Z" fill="#373B38"/>
<path d="M417.105 92.7688C416.929 92.2397 416.458 91.9458 415.929 92.0633C415.165 92.2397 412.99 92.0633 412.226 92.1809C411.52 92.4749 409.815 92.3573 405.876 93.7682C405.289 93.9446 404.818 94.3561 404.995 95.0028C405.876 99.118 407.052 103.174 408.698 106.761C408.933 107.348 409.639 107.525 410.168 107.172C413.284 105.056 415.929 104.35 420.221 101.764C420.75 101.411 420.985 100.823 420.632 100.294C419.045 97.8834 417.869 95.3555 417.105 92.8276" fill="#373B38"/>
<path d="M467.311 104.468C465.489 106.526 463.373 108.231 461.021 109.641C460.492 109.935 460.374 110.582 460.727 111.111C461.315 111.993 461.903 112.875 462.491 113.757C463.137 114.521 463.549 118.813 467.723 123.516C468.076 123.927 468.546 124.28 469.075 124.045C473.543 121.987 477.541 119.283 480.95 115.344C481.362 114.874 481.186 114.109 480.656 113.815C476.247 111.405 472.426 107.995 468.84 104.409C468.428 103.998 467.782 104.056 467.37 104.468" fill="#373B38"/>
<path d="M473.249 91.0054C473.249 91.2405 473.249 91.4757 473.19 91.7108C472.72 94.7679 471.779 97.4722 470.486 99.9413C470.192 100.412 470.368 101.058 470.897 101.293C471.662 101.705 472.485 102.116 473.249 102.587C474.307 102.998 477.599 106.29 483.537 109.759C484.066 110.053 484.772 110.053 485.066 109.524C486.594 106.878 487.887 103.88 489.063 100.412C489.651 98.7067 490.121 97.1194 490.533 95.5321C490.709 94.8854 490.18 94.2975 489.533 94.2975C484.007 94.2388 478.54 92.7102 473.249 91.0642" fill="#373B38"/>
<path d="M475.424 47.7366C470.78 44.0917 465.489 41.3874 460.08 39.8001C459.433 39.6237 459.022 40.094 458.787 40.7407C456.141 48.442 455.201 52.5573 453.672 58.4362C453.554 58.9653 453.672 59.5532 454.201 59.7295C456.67 60.7877 459.022 62.1987 461.256 63.8447C461.726 64.1975 462.373 64.0799 462.667 63.6096C463.372 62.5514 464.078 61.552 464.842 60.4938C465.489 59.318 470.897 54.6737 475.424 49.3239C475.835 48.7948 475.953 48.1481 475.424 47.7366Z" fill="#373B38"/>
<path d="M456.141 111.934C453.613 112.816 450.909 113.404 448.205 113.58C447.617 113.58 447.205 114.109 447.264 114.697C447.44 115.991 447.558 117.284 447.734 118.577C447.969 119.459 448.146 123.986 447.911 128.395C447.911 129.042 448.381 129.512 449.028 129.453C450.438 129.336 451.849 129.101 453.26 128.807C456.317 128.16 459.198 127.455 461.961 126.632C462.608 126.455 462.843 125.75 462.549 125.162C460.315 121.223 458.787 116.873 457.434 112.522C457.258 111.993 456.67 111.699 456.141 111.875" fill="#373B38"/>
<path d="M440.68 56.9663C443.384 56.9075 446.206 57.2015 448.969 57.9657C449.557 58.1421 450.145 57.7306 450.204 57.1427C450.321 56.2021 450.439 55.3202 450.556 54.4384C450.556 53.145 452.379 44.5618 454.613 39.8587C454.907 39.2708 454.554 38.5654 453.849 38.4478C447.852 37.5072 442.032 37.9187 437.152 39.6824C436.623 39.8587 436.565 40.4466 436.623 41.0345C436.976 44.5031 437.623 49.9116 439.622 56.1433C439.798 56.6724 440.092 57.0839 440.68 57.0839" fill="#373B38"/>
<path d="M418.399 73.1335C419.516 70.5467 421.044 68.0776 422.926 65.9024C423.278 65.4909 423.278 64.903 422.867 64.4915C422.573 64.2563 422.338 63.9624 422.044 63.7272C421.162 63.1393 418.575 58.789 414.166 54.8501C413.696 54.4386 413.049 54.2622 412.638 54.7325C409.404 57.9659 406.994 61.2581 405.524 64.6091C405.23 65.3145 404.936 66.0788 404.701 66.9606C404.525 67.4897 404.878 67.96 405.407 68.1952C409.345 70.2528 413.343 71.4286 417.047 73.545C417.576 73.8389 418.223 73.6038 418.458 73.0747" fill="#373B38"/>
<path d="M430.686 111.052C431.038 110.582 430.921 109.877 430.392 109.583C428.569 108.525 426.806 107.231 425.16 105.703C424.748 105.291 424.337 104.938 423.984 104.527C423.631 104.115 422.984 104.115 422.573 104.527C421.75 105.291 420.927 105.997 420.104 106.702C419.516 107.349 416.635 108.583 412.755 112.052C412.344 112.463 412.108 113.051 412.461 113.522C415.107 117.167 418.281 120.224 421.809 122.693C422.338 123.045 422.984 122.869 423.278 122.281C425.218 118.284 427.923 114.639 430.686 111.17" fill="#373B38"/>
<path d="M498.94 22.2809C493.12 15.8141 484.478 15.4026 479.598 19.1063C475.659 22.0458 473.014 24.1622 469.31 29.6295C466.606 33.5684 467.311 35.3908 469.134 36.743L469.31 36.8606C471.897 38.3891 473.896 36.0963 476.423 33.5684C479.128 30.8053 485.712 26.5137 490.474 30.2762C494.824 33.7448 491.238 39.5649 489.063 42.3279C486.476 45.5613 483.772 48.6184 485.947 50.3232L486.124 50.4996C488.122 52.0869 491.885 50.7348 494.119 48.9123C500.938 43.3861 508.17 32.569 498.998 22.3397" fill="#B44935"/>
<path d="M443.678 3.52724C435.036 2.70419 428.393 8.28914 427.276 14.2856C426.394 19.1063 425.865 22.4573 426.806 28.9829C427.511 33.686 429.216 34.5678 431.509 34.3326H431.744C434.683 33.686 434.625 30.6289 434.742 27.0428C434.86 23.1627 436.8 15.579 442.855 15.1087C448.381 14.6971 449.675 21.3991 449.969 24.9264C450.262 29.0416 450.38 33.1569 453.084 32.9217H453.319C455.847 32.6866 457.729 29.218 458.14 26.3374C459.434 17.6954 457.435 4.76181 443.737 3.46845" fill="#B44935"/>
<path d="M368.075 75.0736C365.665 83.4216 369.898 91.0054 375.6 93.1806C380.186 94.9443 383.361 96.0612 390.004 96.3552C394.766 96.5316 395.941 95.003 396.118 92.7691V92.5339C396.118 89.5357 393.061 89.0654 389.592 88.2423C385.83 87.3605 378.657 84.1271 379.363 78.0718C380.01 72.5457 386.829 72.4869 390.356 72.8984C394.413 73.3687 398.469 74.0154 398.763 71.3111V71.0759C399.057 68.548 395.941 66.0789 393.237 65.0795C384.948 62.1988 371.897 61.7873 368.075 75.0148" fill="#B44935"/>
<path d="M421.574 160.847C429.158 165.021 437.506 162.552 440.915 157.496C443.678 153.38 445.442 150.559 447.147 144.151C448.382 139.565 447.147 138.037 444.972 137.39H444.737C441.797 136.743 440.68 139.565 439.152 142.798C437.506 146.267 432.744 152.557 426.982 150.5C421.75 148.677 423.161 142.034 424.337 138.683C425.689 134.803 427.217 130.982 424.631 130.1H424.396C421.985 129.218 418.869 131.687 417.341 134.156C412.755 141.623 409.463 154.262 421.515 160.847" fill="#B44935"/>
<path d="M519.163 124.456C524.454 117.578 523.278 108.936 518.752 104.88C515.107 101.529 512.579 99.3534 506.524 96.6491C502.173 94.7091 500.527 95.7085 499.469 97.7661L499.351 97.9425C498.293 100.764 500.939 102.293 503.878 104.292C507.053 106.467 512.52 112.111 509.639 117.46C507.053 122.34 500.645 119.93 497.529 118.283C493.884 116.343 490.357 114.227 489.122 116.696L489.004 116.931C487.829 119.165 489.828 122.634 492.003 124.515C498.646 130.159 510.639 135.332 519.046 124.456" fill="#B44935"/>
<path d="M523.807 71.4283C523.513 63.6682 517.811 58.3184 512.343 58.0244C507.934 57.7893 504.877 57.6717 499.175 59.3178C495.06 60.4936 494.472 62.1397 494.942 64.1385V64.3149C495.883 66.8428 498.587 66.4313 501.761 66.1373C505.23 65.8434 512.226 66.6076 513.284 72.0162C514.284 76.8957 508.463 78.8357 505.348 79.4824C501.703 80.1879 498.058 80.7758 498.587 83.1861V83.4213C499.116 85.6553 502.467 86.9486 505.054 86.9486C512.931 87.0662 524.219 83.8328 523.749 71.4871" fill="#B44935"/>
<path d="M394.354 29.1594C388.064 33.7449 386.888 41.4463 389.71 46.1494C392.003 49.9707 393.59 52.4986 398.117 56.3199C401.35 59.083 403.055 58.6714 404.466 57.1429L404.583 57.0253C406.23 54.8501 404.348 52.8513 402.291 50.3822C400.115 47.6779 396.823 41.4463 400.703 37.5662C404.231 34.0389 409.051 37.7426 411.344 39.9765C413.99 42.5633 416.459 45.2675 418.164 43.5039L418.34 43.3275C419.927 41.6814 419.104 38.2129 417.693 36.0377C413.402 29.4533 404.407 21.9283 394.413 29.2182" fill="#B44935"/>
<path d="M381.891 125.573C385.066 132.687 392.414 135.45 397.588 133.627C401.762 132.158 404.584 131.099 409.287 127.455C412.638 124.809 412.579 123.104 411.403 121.399L411.285 121.223C409.522 119.224 407.17 120.635 404.29 122.105C401.233 123.692 394.413 125.632 391.415 121.047C388.652 116.873 393.296 112.875 395.942 111.17C398.999 109.112 402.173 107.231 400.821 105.174L400.703 104.997C399.41 103.116 395.824 103.175 393.414 104.115C386.065 106.937 376.894 114.227 381.95 125.514" fill="#B44935"/>
<path d="M474.778 156.261C482.361 154.497 486.477 147.913 485.771 142.446C485.183 138.036 484.654 135.097 482.009 129.747C480.127 125.926 478.364 125.632 476.482 126.514H476.306C473.955 127.925 474.895 130.511 475.777 133.627C476.718 136.978 477.305 143.974 472.191 146.091C467.547 147.972 464.548 142.622 463.373 139.683C461.962 136.273 460.727 132.804 458.434 133.745H458.258C456.141 134.685 455.554 138.213 455.965 140.799C457.317 148.56 462.667 159.024 474.719 156.261" fill="#B44935"/>
</g>
</g>
<g clip-path="url(#clip5_87_4788)">
<mask id="mask5_87_4788" style="mask-type:luminance" maskUnits="userSpaceOnUse" x="0" y="23" width="121" height="121">
<path d="M120.83 23H0V143.83H120.83V23Z" fill="white"/>
</mask>
<g mask="url(#mask5_87_4788)">
<path d="M53.21 103.241C54.8301 105.031 53.9774 108.357 52.5278 110.318C48.179 116.117 38.1169 123.109 28.9076 113.644C23.4502 108.016 22.6827 95.9074 30.2719 89.4267C33.1711 86.698 30.613 83.543 27.9696 80.5585C23.2796 75.9538 20.0393 68.5352 25.582 60.0933C30.1014 53.101 36.1556 51.7366 40.675 54.039C44.3417 55.9149 47.7526 58.132 51.6751 62.1398C53.2953 63.8452 53.3805 66.4886 51.6751 68.1941C50.1402 69.8142 47.5821 70.07 45.7913 68.7057C43.9154 67.1708 41.1867 66.2328 38.6285 69.2173C36.2409 72.0313 37.2642 74.2484 38.7991 75.8685C40.675 77.7445 40.5898 80.729 38.7991 82.6903C38.7991 82.7755 38.7991 82.7755 38.7991 82.7755C37.6053 83.9693 37.52 86.3569 39.396 87.8918C39.6518 88.1477 39.9076 88.4035 40.1634 88.6593C41.613 90.3647 41.5278 93.0081 39.9076 94.543C38.1169 96.2485 35.4735 100.342 38.2022 103.326C40.675 106.055 44.427 103.752 46.2177 102.388C48.2642 100.768 51.2487 101.194 53.0394 103.155L53.21 103.326V103.241ZM81.6055 51.3103C69.7527 45.4265 62.3341 53.4421 59.4348 60.0933C58.4968 62.3103 58.4968 65.7212 60.4581 67.0855L60.6286 67.2561C62.7604 68.791 65.7449 68.4499 67.4504 66.4034C68.8147 64.6127 71.9698 61.5429 75.0395 63.5894C78.3651 65.8065 76.745 70.4111 75.4659 72.5429C74.2721 74.5042 74.7837 76.9771 76.6597 78.3414C78.5357 79.7058 81.3496 80.3879 84.0783 77.574C88.0008 73.6515 88.8536 70.9228 90.3032 67.0855C92.0939 62.3956 89.1094 55.1475 81.6055 51.4808M78.1093 87.2097L77.9388 87.3802C75.8923 89.0004 75.3806 91.9849 76.9155 94.1167C78.1946 95.9926 79.0473 98.6361 75.9775 100.683C72.993 102.729 70.9465 102.217 69.4969 100.853C68.5589 99.7446 68.1325 97.5275 70.0938 95.9926C70.1791 95.9074 70.2643 95.8221 70.3496 95.7368C73.5047 92.9229 75.0395 88.8298 74.4426 84.5662C73.6752 79.1941 72.3108 75.0158 65.4891 72.2871C61.8224 70.8375 58.9232 70.4111 53.6363 71.5197C45.2797 73.3104 41.1867 82.3492 43.2332 87.8066C45.2797 93.264 48.0084 96.7601 50.9929 98.295C52.5278 99.0624 55.4271 99.5741 58.6674 99.4888H58.8379H59.0937C60.2023 99.7446 61.3961 100.768 61.3108 102.047C61.055 103.155 61.2255 104.349 61.5666 105.543C63.1015 110.489 66.6829 113.473 71.3729 115.435C76.0628 117.396 81.6055 118.078 87.2334 111.938C96.1869 102.217 90.0474 91.8143 84.4194 87.2949C82.5434 85.76 79.9 85.76 78.024 87.2949" fill="#FFCB5A"/>
</g>
</g>
<g clip-path="url(#clip6_87_4788)">
<mask id="mask6_87_4788" style="mask-type:luminance" maskUnits="userSpaceOnUse" x="771" y="23" width="121" height="121">
<path d="M891.83 23H771V143.83H891.83V23Z" fill="white"/>
</mask>
<g mask="url(#mask6_87_4788)">
<path d="M858.66 95.7366C861.047 89.1707 861.388 84.1396 858.318 75.1861C853.458 61.1163 834.869 55.2325 824.295 59.4961C813.721 63.7597 807.241 68.876 804.683 74.2481C802.124 79.535 802.636 94.4575 808.52 102.729C814.404 111 825.062 114.923 835.551 112.791C846.039 110.744 854.311 107.845 858.66 95.7366ZM817.388 98.9769C807.241 90.1087 810.907 75.9536 821.481 71.0078C832.055 66.062 850.815 75.4419 848.427 90.6203C846.21 104.093 827.535 107.845 817.388 99.0622M838.706 79.7908C844.931 85.3334 842.714 94.3722 836.148 97.442C829.667 100.597 818.07 94.6281 819.605 85.0776C820.969 76.5505 832.481 74.1629 838.621 79.7908" fill="#50C7BE"/>
</g>
</g>
<defs>
<clipPath id="clip0_87_4788">
<rect width="120.833" height="120.833" fill="white" transform="translate(121 22.9165)"/>
</clipPath>
<clipPath id="clip1_87_4788">
<rect width="120.833" height="120.833" fill="white" transform="translate(241.833 22.9165)"/>
</clipPath>
<clipPath id="clip2_87_4788">
<rect width="120.833" height="120.833" fill="white" transform="translate(529.333 22.9165)"/>
</clipPath>
<clipPath id="clip3_87_4788">
<rect width="120.833" height="120.833" fill="white" transform="translate(650.167 22.9165)"/>
</clipPath>
<clipPath id="clip4_87_4788">
<rect width="166.667" height="166.667" fill="white" transform="translate(362.667)"/>
</clipPath>
<clipPath id="clip5_87_4788">
<rect width="120.83" height="120.83" fill="white" transform="translate(0 23)"/>
</clipPath>
<clipPath id="clip6_87_4788">
<rect width="120.83" height="120.83" fill="white" transform="translate(771 23)"/>
</clipPath>
</defs>
</svg>
