<svg width="496" height="160" viewBox="0 0 496 160" fill="none" xmlns="http://www.w3.org/2000/svg">
<g clip-path="url(#clip0_84_1556)">
<mask id="mask0_84_1556" style="mask-type:luminance" maskUnits="userSpaceOnUse" x="0" y="38" width="84" height="84">
<path d="M84 38H0V122H84V38Z" fill="white"/>
</mask>
<g mask="url(#mask0_84_1556)">
<path d="M36.9909 93.7829C38.1173 95.0277 37.5245 97.3397 36.5167 98.7031C33.4934 102.734 26.4983 107.595 20.0961 101.015C16.3022 97.1026 15.7686 88.6848 21.0446 84.1795C23.0601 82.2825 21.2817 80.0891 19.444 78.0143C16.1836 74.8132 13.931 69.6558 17.7842 63.7871C20.926 58.9261 25.1349 57.9776 28.2768 59.5782C30.8258 60.8824 33.197 62.4236 35.9239 65.2098C37.0502 66.3954 37.1095 68.2331 35.9239 69.4187C34.8568 70.545 33.0784 70.7229 31.8336 69.7744C30.5294 68.7073 28.6324 68.0553 26.854 70.1301C25.1942 72.0863 25.9055 73.6276 26.9726 74.7539C28.2768 76.0581 28.2175 78.1329 26.9726 79.4963C26.9726 79.5556 26.9726 79.5556 26.9726 79.5556C26.1427 80.3855 26.0834 82.0454 27.3875 83.1124C27.5654 83.2903 27.7432 83.4681 27.9211 83.646C28.9288 84.8316 28.8696 86.6692 27.7432 87.7363C26.4983 88.9219 24.6607 91.7673 26.5576 93.8421C28.2768 95.7391 30.8851 94.1385 32.13 93.1901C33.5527 92.0637 35.6275 92.3601 36.8724 93.7236L36.9909 93.8421V93.7829ZM56.7312 57.6812C48.4913 53.5909 43.3339 59.1632 41.3184 63.7871C40.6663 65.3284 40.6663 67.6996 42.0298 68.6481L42.1483 68.7666C43.6303 69.8337 45.7051 69.5965 46.8907 68.1738C47.8392 66.9289 50.0326 64.7949 52.1667 66.2176C54.4786 67.7589 53.3523 70.96 52.4631 72.442C51.6331 73.8054 51.9888 75.5246 53.293 76.473C54.5971 77.4215 56.5534 77.8958 58.4504 75.9395C61.1772 73.2126 61.7701 71.3157 62.7778 68.6481C64.0227 65.3877 61.9479 60.3488 56.7312 57.7998M54.3007 82.6382L54.1822 82.7567C52.7595 83.8831 52.4038 85.9579 53.4708 87.4399C54.36 88.744 54.9528 90.5817 52.8187 92.0045C50.7439 93.4272 49.3212 93.0715 48.3134 92.123C47.6614 91.3524 47.365 89.8111 48.7284 88.744C48.7877 88.6848 48.847 88.6255 48.9062 88.5662C51.0996 86.61 52.1667 83.7645 51.7517 80.8005C51.2182 77.0658 50.2697 74.1611 45.5273 72.2642C42.9782 71.2564 40.9627 70.96 37.2873 71.7306C31.4779 72.9755 28.6324 79.2592 30.0552 83.0531C31.4779 86.8471 33.3748 89.2776 35.4497 90.3446C36.5167 90.8781 38.5322 91.2338 40.7849 91.1745H40.9034H41.0813C41.8519 91.3524 42.6818 92.0637 42.6226 92.9529C42.4447 93.7236 42.5633 94.5535 42.8004 95.3834C43.8674 98.8217 46.3572 100.896 49.6176 102.26C52.878 103.623 56.7312 104.098 60.6437 99.8294C66.8681 93.0715 62.6 85.8393 58.6875 82.6975C57.3833 81.6304 55.5456 81.6304 54.2415 82.6975" fill="#FFCB5A"/>
</g>
</g>
<g clip-path="url(#clip1_84_1556)">
<mask id="mask1_84_1556" style="mask-type:luminance" maskUnits="userSpaceOnUse" x="328" y="38" width="84" height="84">
<path d="M412 38H328V122H412V38Z" fill="white"/>
</mask>
<g mask="url(#mask1_84_1556)">
<path d="M384.731 84.7127C386.035 81.1559 386.213 78.429 384.553 73.5681C381.945 65.9209 371.808 62.7198 366.117 65.0317C360.367 67.3436 356.869 70.1298 355.447 73.0345C354.083 75.9393 354.38 84.0014 357.522 88.5067C360.723 93.012 366.473 95.0868 372.164 93.9604C377.855 92.8341 382.301 91.2928 384.672 84.7127M364.457 84.4756C360.545 81.0966 361.968 75.5836 366.058 73.6866C370.148 71.7897 377.38 75.4058 376.432 81.2152C375.602 86.4319 368.37 87.8546 364.457 84.4756Z" fill="#373B38"/>
</g>
</g>
<g clip-path="url(#clip2_84_1556)">
<mask id="mask2_84_1556" style="mask-type:luminance" maskUnits="userSpaceOnUse" x="84" y="38" width="84" height="84">
<path d="M168 38H84V122H168V38Z" fill="white"/>
</mask>
<g mask="url(#mask2_84_1556)">
<path d="M121.821 70.7228C119.924 75.1688 112.929 82.2824 111.15 85.4835C109.313 88.6846 103.088 96.6282 99.7684 94.7312C96.4487 92.8343 99.7684 87.7954 101.665 85.1278C103.622 82.4602 106.23 79.6741 109.787 74.6945C113.284 69.715 115.833 63.8463 118.027 61.0008C120.22 58.1554 123.599 54.895 126.622 57.6218C129.349 60.0523 123.836 66.2175 121.88 70.6635M154.78 66.336C151.757 63.6091 148.378 66.8103 146.185 69.715C141.739 75.4059 139.842 80.504 138.419 82.5788C134.922 87.5583 132.965 90.878 131.009 93.6049C129.053 96.2725 126.326 101.43 129.646 103.327C132.965 105.224 138.004 96.5689 139.842 93.3678C141.68 90.1667 145.473 84.8907 148.497 80.8597C151.401 77.0065 157.507 68.8258 154.78 66.3953M113.521 99.2365C116.604 101.904 119.924 98.5844 122.058 95.6797C124.192 92.775 127.393 86.6098 130.831 81.571C134.21 76.5322 136.819 73.746 138.716 71.0192C140.612 68.2923 143.754 63.1942 140.375 61.3565C136.996 59.5188 130.95 67.6402 129.171 70.8413C127.393 74.1017 119.805 81.571 117.967 86.0763C116.13 90.5223 110.735 96.806 113.521 99.2365Z" fill="#50C7BE"/>
</g>
</g>
<g clip-path="url(#clip3_84_1556)">
<mask id="mask3_84_1556" style="mask-type:luminance" maskUnits="userSpaceOnUse" x="412" y="38" width="84" height="84">
<path d="M496 38H412V122H496V38Z" fill="white"/>
</mask>
<g mask="url(#mask3_84_1556)">
<path d="M445.138 66.0396C444.723 70.4856 440.869 70.8413 440.751 74.0424C440.632 77.2435 444.367 79.5554 444.248 84.0607C444.13 88.566 441.462 91.53 438.083 94.0198C434.704 96.5096 430.199 97.3988 428.717 95.0276C425.101 89.3959 436.72 88.9217 436.008 83.8829C435.712 81.8081 430.673 81.0967 430.614 77.0657C430.555 72.5011 437.253 70.9598 437.668 67.6401C438.32 62.7199 432.985 62.8384 435.771 58.2146C438.972 54.7763 445.553 61.5343 445.138 66.0396ZM474.126 94.9683C475.252 90.6408 470.628 85.0092 471.636 81.9266C472.644 78.8441 476.437 79.4369 478.631 75.5244C480.172 72.7975 479.461 68.3515 476.971 65.2096C474.066 61.5935 471.458 60.7636 469.265 61.8899C465.767 63.7276 471.399 68.885 469.265 72.5604C468.198 74.3981 463.752 74.3388 462.684 78.2513C461.38 83.1715 465.826 83.8829 466.004 90.7594C466.123 95.7389 458.594 98.4658 461.795 101.726C465.234 104.335 472.881 99.355 474.007 95.0276M458.95 91.2929C460.788 85.0685 454.8 79.9704 456.045 76.9471C457.29 73.9831 460.906 73.746 462.684 69.5371C464.048 66.3952 463.633 63.4312 460.965 59.6966C458.298 55.9619 453.2 53.5907 450.117 56.6733C446.797 59.993 456.875 63.6684 454.978 67.403C453.615 70.1299 449.939 68.9443 447.746 74.1017C445.967 78.3106 452.548 83.5272 451.599 86.7283C450.236 91.4707 444.545 93.1899 447.094 96.8652C450.473 100.304 457.349 96.9245 459.009 91.2336" fill="#FFCB5A"/>
</g>
</g>
<g clip-path="url(#clip4_84_1556)">
<mask id="mask4_84_1556" style="mask-type:luminance" maskUnits="userSpaceOnUse" x="168" y="0" width="160" height="160">
<path d="M328 0H168V160H328V0Z" fill="white"/>
</mask>
<g mask="url(#mask4_84_1556)">
<path d="M281.439 30.4198C264.113 18.4551 248.818 17.3828 233.58 18.8501C217.213 20.3739 188.6 28.896 184.592 70.0388C180.585 111.182 194.695 117.108 200.169 124.275C205.587 131.443 219.076 141.601 244.077 143.746C269.079 145.891 289.622 133.926 295.774 126.025C301.926 118.123 312.931 92.7831 307.118 71.6755C301.305 50.5679 294.363 39.3933 281.439 30.4198Z" fill="#C0573B"/>
<path d="M274.328 39.7885C260.275 30.0249 247.859 29.1783 235.499 30.3635C222.236 31.6051 199.041 38.5469 195.824 72.0707C192.607 105.595 204.007 110.448 208.466 116.261C212.868 122.074 223.76 130.371 244.078 132.12C264.339 133.87 280.988 124.106 285.954 117.672C290.977 111.238 299.838 90.5822 295.153 73.3688C290.469 56.1554 284.825 47.069 274.328 39.7885Z" fill="#50C7BE"/>
<path d="M268.515 48.7618C257.34 41.425 247.464 40.7477 237.644 41.6507C227.09 42.6102 208.635 47.8024 206.039 73.0864C203.443 98.3703 212.586 101.982 216.085 106.384C219.584 110.787 228.275 117.051 244.416 118.349C260.557 119.647 273.82 112.31 277.771 107.513C281.778 102.66 288.833 87.0828 285.108 74.1587C281.383 61.1781 276.868 54.3491 268.515 48.8747" fill="#F7F0E5"/>
<path d="M265.467 101.362C276.416 92.1624 277.319 78.2224 271.28 70.3212C266.427 63.9437 262.984 59.5981 253.898 53.5028C247.407 49.1007 244.303 50.173 241.989 53.0513L241.764 53.3335C239.111 57.4534 242.949 60.7268 247.125 64.8467C251.697 69.3053 258.751 79.9155 252.261 87.4781C246.335 94.3635 236.684 88.494 232.113 84.882C226.808 80.7056 221.672 76.2471 218.794 79.6898L218.512 79.972C215.859 83.1325 217.947 89.2277 220.938 92.8961C230.025 103.958 248.028 115.923 265.411 101.362" fill="#373B38"/>
<path d="M203.33 28.5011C205.023 31.0972 204.289 34.427 201.975 36.3459C200.96 37.4182 199.605 38.039 198.138 38.1519C196.84 38.3776 195.372 38.1519 194.131 37.136C192.889 36.1766 192.325 34.7092 192.381 32.9596C192.55 31.3794 193.453 29.6298 194.864 28.2189C197.855 25.6228 201.524 25.7357 203.33 28.4447" fill="#FFCB5A"/>
<path d="M218.512 20.5432C219.527 23.5344 217.834 27.3721 215.069 28.7266C212.247 30.0247 208.353 29.0088 206.66 26.2434C205.023 23.5908 206.716 19.5273 210.102 17.9471C213.489 16.3104 217.496 17.552 218.512 20.5432Z" fill="#FFCB5A"/>
<path d="M233.016 16.4798C233.467 19.3017 232.056 22.3493 229.235 22.9701C226.469 23.6474 223.76 21.7849 222.914 18.963C222.067 16.2541 223.478 13.0371 226.751 12.247C229.968 11.5133 232.508 13.6015 233.016 16.4798Z" fill="#FFCB5A"/>
<path d="M250.229 15.2383C250.06 17.7779 247.633 19.8097 245.037 19.8661C242.441 19.8661 239.958 18.1166 239.675 15.5204C239.393 12.9808 241.82 10.2153 244.811 10.2153C247.802 10.2153 250.399 12.6421 250.229 15.2383Z" fill="#FFCB5A"/>
<path d="M267.443 18.8503C266.878 20.3177 265.637 21.5593 264.282 22.2365C262.871 23.0267 261.291 23.4217 259.824 23.0267C256.945 22.3494 254.744 18.9632 255.083 15.7462C255.421 12.6422 258.695 10.9491 262.42 11.8521C266.145 12.7551 268.684 15.8591 267.443 18.8503Z" fill="#FFCB5A"/>
<path d="M280.875 26.0745C279.351 28.332 276.642 28.8399 274.215 27.429C271.845 25.9051 270.547 23.1961 271.732 20.6C272.861 18.1168 276.473 16.8752 279.182 18.6247C282.003 20.2614 282.398 23.7605 280.875 26.018" fill="#FFCB5A"/>
<path d="M294.476 38.0954C292.162 40.2964 288.268 40.1836 285.954 38.0954C283.64 35.8943 283.809 32.3952 285.672 29.8555C287.534 27.3723 291.372 26.3 294.081 28.8961C296.903 31.4358 296.734 36.0072 294.476 38.0954Z" fill="#FFCB5A"/>
<path d="M304.071 50.7376C301.587 52.3178 298.878 51.5841 297.129 49.1009C295.379 46.6176 295.21 43.3443 297.411 41.4254C299.612 39.4501 303.224 40.1838 305.256 43.0056C307.288 45.8839 306.554 49.1573 304.071 50.6811" fill="#FFCB5A"/>
<path d="M310.956 65.242C308.529 66.0886 305.651 64.3954 304.635 62.0251C303.506 59.6547 304.635 57.0022 306.836 55.7605C309.093 54.5189 311.633 55.4219 312.931 58.1873C314.173 60.9528 313.326 64.4519 310.956 65.242Z" fill="#FFCB5A"/>
<path d="M314.568 83.7534C311.295 83.7534 308.868 81.4395 308.303 78.279C307.908 75.0621 309.601 72.0144 312.818 71.1679C315.866 70.3213 319.591 72.4095 320.155 76.5294C320.832 80.5929 317.785 83.7534 314.568 83.7534Z" fill="#FFCB5A"/>
<path d="M309.037 101.192C307.57 100.572 306.554 99.3299 305.933 97.8626C305.256 96.3952 305.03 94.7585 305.481 93.2911C306.046 90.3564 309.15 88.0989 312.141 88.3246C315.358 88.5504 317.051 92.106 316.205 96.0566C315.64 97.919 314.624 99.6121 313.326 100.572C312.028 101.531 310.448 101.813 308.981 101.192" fill="#FFCB5A"/>
<path d="M302.095 115.414C299.894 113.665 299.273 110.448 300.797 107.965C302.321 105.481 305.538 104.071 308.134 105.312C310.674 106.497 311.012 110.335 309.15 113.27C307.344 116.205 304.353 117.164 302.039 115.358" fill="#FFCB5A"/>
<path d="M291.711 128.79C289.792 126.364 290.3 122.977 292.557 120.72C294.815 118.462 298.201 117.729 300.628 119.817C302.998 121.792 302.66 125.856 300.007 128.508C297.355 131.161 293.686 131.274 291.711 128.79Z" fill="#FFCB5A"/>
<path d="M277.489 138.385C276.191 135.563 277.376 131.443 280.028 129.863C282.624 128.113 286.744 128.847 288.663 131.33C290.582 133.87 289.284 137.933 286.124 140.021C282.907 141.997 278.843 141.319 277.489 138.385Z" fill="#FFCB5A"/>
<path d="M262.476 145.439C261.799 142.617 262.984 139.57 265.693 138.723C268.346 137.707 271.224 139.457 272.353 142.11C273.481 144.762 272.353 147.979 269.136 149.164C265.919 150.18 263.153 148.261 262.533 145.439" fill="#FFCB5A"/>
<path d="M246.279 145.327C246.617 142.674 249.101 141.037 251.527 140.924C253.954 140.755 256.437 142.787 256.832 145.214C257.284 147.866 254.801 150.406 251.64 150.575C248.48 150.632 245.94 147.81 246.279 145.27" fill="#FFCB5A"/>
<path d="M229.347 140.417C230.702 137.482 234.427 136.014 237.305 136.805C240.127 137.877 241.989 141.32 241.425 144.48C240.861 147.584 237.361 149.108 233.806 147.753C230.194 146.681 228.049 143.238 229.347 140.417Z" fill="#FFCB5A"/>
<path d="M214.899 135.337C216.48 133.08 219.302 132.572 221.615 134.152C223.986 135.619 225.171 138.498 223.929 140.981C222.744 143.464 219.189 144.48 216.423 142.787C213.771 140.981 213.319 137.595 214.899 135.337Z" fill="#FFCB5A"/>
<path d="M198.871 126.984C201.185 124.783 205.023 124.952 207.393 127.041C209.707 129.298 209.482 132.854 207.563 135.337C205.587 137.877 201.863 138.78 199.154 136.183C196.332 133.7 196.614 129.072 198.871 126.984Z" fill="#FFCB5A"/>
<path d="M190.18 114.681C192.663 113.101 195.429 113.778 197.122 116.318C198.928 118.744 199.097 122.018 196.896 123.993C194.751 125.912 191.139 125.235 189.051 122.413C187.076 119.478 187.697 116.261 190.18 114.737" fill="#FFCB5A"/>
<path d="M184.141 99.3862C186.624 98.6525 189.164 100.402 190.349 102.716C191.365 105.086 190.236 107.739 188.035 108.924C185.778 110.166 183.182 109.263 181.996 106.441C180.642 103.675 181.771 100.063 184.141 99.3862Z" fill="#FFCB5A"/>
<path d="M183.746 74.7231C186.963 74.7231 189.559 77.2628 189.785 80.5926C190.011 84.0353 187.979 86.7443 184.818 87.4216C181.601 88.0988 178.102 85.5027 177.82 81.6085C177.538 77.6579 180.473 74.7231 183.69 74.7796" fill="#FFCB5A"/>
<path d="M185.834 56.0423C188.825 56.8888 190.744 60.4444 190.293 63.6049C189.785 66.7654 187.019 69.3051 183.859 69.1922C180.811 69.0229 178.723 65.6931 179.344 61.9682C179.852 58.1869 182.787 55.2521 185.834 56.0987" fill="#FFCB5A"/>
<path d="M191.365 41.1993C193.792 42.7231 194.751 45.7143 193.679 48.3668C192.55 51.0194 189.559 52.9383 186.85 52.1482C184.141 51.3016 183.238 47.6332 184.593 44.4162C185.947 41.1429 188.938 39.7884 191.365 41.2557" fill="#FFCB5A"/>
</g>
</g>
<defs>
<clipPath id="clip0_84_1556">
<rect width="84" height="84" fill="white" transform="translate(0 38)"/>
</clipPath>
<clipPath id="clip1_84_1556">
<rect width="84" height="84" fill="white" transform="translate(328 38)"/>
</clipPath>
<clipPath id="clip2_84_1556">
<rect width="84" height="84" fill="white" transform="translate(84 38)"/>
</clipPath>
<clipPath id="clip3_84_1556">
<rect width="84" height="84" fill="white" transform="translate(412 38)"/>
</clipPath>
<clipPath id="clip4_84_1556">
<rect width="160" height="160" fill="white" transform="translate(168)"/>
</clipPath>
</defs>
</svg>
