<svg width="420" height="84" viewBox="0 0 420 84" fill="none" xmlns="http://www.w3.org/2000/svg">
<g clip-path="url(#clip0_68_1838)">
<mask id="mask0_68_1838" style="mask-type:luminance" maskUnits="userSpaceOnUse" x="0" y="0" width="84" height="84">
<path d="M84 0H0V84H84V0Z" fill="white"/>
</mask>
<g mask="url(#mask0_68_1838)">
<path d="M52.6407 54.7748C59.1022 49.1432 59.6358 40.6068 56.079 35.7459C53.2335 31.8334 51.218 29.1658 45.8235 25.4311C41.9703 22.7042 40.1919 23.3563 38.8284 25.1347L38.7099 25.3126C37.1686 27.8023 39.4212 29.8771 41.8517 32.3669C44.5193 35.0938 48.7282 41.6146 44.875 46.2385C41.3775 50.4474 35.6866 46.8905 33.019 44.6379C29.8771 42.0889 26.8538 39.362 25.194 41.4368L25.0161 41.6146C23.4749 43.5709 24.6605 47.3055 26.4389 49.5581C31.7741 56.3161 42.3852 63.6668 52.5814 54.7155" fill="#C0573B"/>
</g>
</g>
<g clip-path="url(#clip1_68_1838)">
<mask id="mask1_68_1838" style="mask-type:luminance" maskUnits="userSpaceOnUse" x="84" y="0" width="84" height="84">
<path d="M168 0H84V84H168V0Z" fill="white"/>
</mask>
<g mask="url(#mask1_68_1838)">
<path d="M156.262 32.9599C154.484 25.0757 144.999 21.8153 138.834 22.4673C132.195 23.238 129.053 26.5577 127.393 29.2846C126.8 30.2923 126.622 31.4779 125.97 32.6042C125.496 33.3156 124.073 33.4934 123.421 33.4934C120.635 33.4934 118.62 33.9084 116.367 34.9162C115.003 35.5683 113.403 34.7383 113.225 34.6198C110.557 33.4934 109.55 32.4857 104.985 32.8414C97.7529 33.3749 93.0698 41.7927 94.0775 46.7722C95.0853 51.811 97.0415 54.1822 99.3534 55.8421C101.665 57.5019 107.06 60.703 113.462 57.3241C116.426 55.7828 119.034 52.5224 120.102 49.9733C120.516 49.0249 121.169 48.1949 122.176 47.8392C124.133 47.1279 128.341 46.1794 131.365 48.847C134.092 51.2182 137.945 52.1667 141.857 51.811C147.667 51.3368 152.231 50.2105 155.314 43.986C156.974 40.6071 157.507 37.8802 156.322 32.9006M110.498 49.262C107.534 51.0997 103.918 49.3805 103.088 46.5944C102.317 43.8082 105.874 39.955 109.846 41.4963C113.403 42.8597 113.403 47.4836 110.498 49.3213M121.524 42.4448C120.042 42.0891 119.39 39.5993 120.635 38.7694C121.228 38.3544 122.058 37.8802 124.903 38.5915C125.2 38.6508 125.674 38.9472 125.911 39.3622C126.207 39.8364 126.859 41.7927 125.14 42.1483C123.955 42.3855 122.591 42.6819 121.465 42.3855M147.37 39.6586C145.948 44.7567 138.656 45.4088 135.159 41.6148C131.661 37.8209 133.617 32.545 137.886 31.063C142.154 29.581 148.971 33.9677 147.37 39.7179" fill="#50C7BE"/>
</g>
</g>
<g clip-path="url(#clip2_68_1838)">
<mask id="mask2_68_1838" style="mask-type:luminance" maskUnits="userSpaceOnUse" x="168" y="0" width="84" height="84">
<path d="M252 0H168V84H252V0Z" fill="white"/>
</mask>
<g mask="url(#mask2_68_1838)">
<path d="M204.991 55.7829C206.117 57.0277 205.524 59.3397 204.517 60.7031C201.493 64.7342 194.498 69.5951 188.096 63.015C184.302 59.1026 183.769 50.6848 189.045 46.1795C191.06 44.2825 189.282 42.0891 187.444 40.0143C184.184 36.8132 181.931 31.6558 185.784 25.7871C188.926 20.9261 193.135 19.9776 196.277 21.5782C198.826 22.8824 201.197 24.4236 203.924 27.2098C205.05 28.3954 205.109 30.2331 203.924 31.4187C202.857 32.545 201.078 32.7229 199.834 31.7744C198.529 30.7073 196.632 30.0553 194.854 32.1301C193.194 34.0863 193.906 35.6276 194.973 36.7539C196.277 38.0581 196.217 40.1329 194.973 41.4963C194.973 41.5556 194.973 41.5556 194.973 41.5556C194.143 42.3855 194.083 44.0454 195.388 45.1124C195.565 45.2903 195.743 45.4681 195.921 45.646C196.929 46.8316 196.87 48.6692 195.743 49.7363C194.498 50.9219 192.661 53.7673 194.558 55.8421C196.277 57.7391 198.885 56.1385 200.13 55.1901C201.553 54.0637 203.627 54.3601 204.872 55.7236L204.991 55.8421V55.7829ZM224.731 19.6812C216.491 15.5909 211.334 21.1632 209.318 25.7871C208.666 27.3284 208.666 29.6996 210.03 30.6481L210.148 30.7666C211.63 31.8337 213.705 31.5965 214.891 30.1738C215.839 28.9289 218.033 26.7949 220.167 28.2176C222.479 29.7589 221.352 32.96 220.463 34.442C219.633 35.8054 219.989 37.5246 221.293 38.473C222.597 39.4215 224.553 39.8958 226.45 37.9395C229.177 35.2126 229.77 33.3157 230.778 30.6481C232.023 27.3877 229.948 22.3488 224.731 19.7998M222.301 44.6382L222.182 44.7567C220.759 45.8831 220.404 47.9579 221.471 49.4399C222.36 50.744 222.953 52.5817 220.819 54.0045C218.744 55.4272 217.321 55.0715 216.313 54.123C215.661 53.3524 215.365 51.8111 216.728 50.744C216.788 50.6848 216.847 50.6255 216.906 50.5662C219.1 48.61 220.167 45.7645 219.752 42.8005C219.218 39.0658 218.27 36.1611 213.527 34.2642C210.978 33.2564 208.963 32.96 205.287 33.7306C199.478 34.9755 196.632 41.2592 198.055 45.0531C199.478 48.8471 201.375 51.2776 203.45 52.3446C204.517 52.8781 206.532 53.2338 208.785 53.1745H208.903H209.081C209.852 53.3524 210.682 54.0637 210.623 54.9529C210.445 55.7236 210.563 56.5535 210.8 57.3834C211.867 60.8217 214.357 62.8965 217.618 64.2599C220.878 65.6234 224.731 66.0976 228.644 61.8294C234.868 55.0715 230.6 47.8393 226.687 44.6975C225.383 43.6304 223.546 43.6304 222.241 44.6975" fill="#FFCB5A"/>
</g>
</g>
<g clip-path="url(#clip3_68_1838)">
<mask id="mask3_68_1838" style="mask-type:luminance" maskUnits="userSpaceOnUse" x="252" y="0" width="84" height="84">
<path d="M336 0H252V84H336V0Z" fill="white"/>
</mask>
<g mask="url(#mask3_68_1838)">
<path d="M308.731 46.7127C310.035 43.1559 310.213 40.429 308.553 35.5681C305.945 27.9209 295.808 24.7198 290.117 27.0317C284.367 29.3436 280.869 32.1298 279.447 35.0345C278.083 37.9393 278.38 46.0014 281.522 50.5067C284.723 55.012 290.473 57.0868 296.164 55.9604C301.855 54.8341 306.301 53.2928 308.672 46.7127M288.457 46.4756C284.545 43.0966 285.968 37.5836 290.058 35.6866C294.148 33.7897 301.38 37.4058 300.432 43.2152C299.602 48.4319 292.37 49.8546 288.457 46.4756Z" fill="#373B38"/>
</g>
</g>
<g clip-path="url(#clip4_68_1838)">
<mask id="mask4_68_1838" style="mask-type:luminance" maskUnits="userSpaceOnUse" x="336" y="0" width="84" height="84">
<path d="M420 0H336V84H420V0Z" fill="white"/>
</mask>
<g mask="url(#mask4_68_1838)">
<path d="M392.316 51.6921C390.301 56.968 366.826 64.7337 364.81 58.8057C362.795 52.8184 379.986 50.0915 380.994 45.112C381.942 40.4882 362.558 22.467 366.944 19.2659C371.568 15.9462 396.881 39.7175 392.316 51.6921Z" fill="#C0573B"/>
</g>
</g>
<defs>
<clipPath id="clip0_68_1838">
<rect width="84" height="84" fill="white"/>
</clipPath>
<clipPath id="clip1_68_1838">
<rect width="84" height="84" fill="white" transform="translate(84)"/>
</clipPath>
<clipPath id="clip2_68_1838">
<rect width="84" height="84" fill="white" transform="translate(168)"/>
</clipPath>
<clipPath id="clip3_68_1838">
<rect width="84" height="84" fill="white" transform="translate(252)"/>
</clipPath>
<clipPath id="clip4_68_1838">
<rect width="84" height="84" fill="white" transform="translate(336)"/>
</clipPath>
</defs>
</svg>
