<svg width="1920" height="59" viewBox="0 0 1920 59" fill="none" xmlns="http://www.w3.org/2000/svg">
<path d="M1919.77 0H0V58.6033H1919.77V0Z" fill="#FFCC59"/>
<mask id="mask0_157_6296" style="mask-type:luminance" maskUnits="userSpaceOnUse" x="12" y="0" width="1865" height="59">
<path d="M1876.45 0H12.9976V58.6033H1876.45V0Z" fill="white"/>
</mask>
<g mask="url(#mask0_157_6296)">
<path d="M26.6792 74.1093C40.5889 64.7602 56.779 55.183 72.5129 47.886L73.8811 47.43L178.546 18.9264C283.895 -9.34914 391.069 -33.2921 499.382 -46.9738C572.123 -55.8669 646.005 -59.9715 719.43 -55.1829C763.211 -51.9905 806.993 -45.8337 849.862 -35.5724C855.335 -34.4323 863.088 -32.608 868.56 -31.6959C960.912 -17.1021 1055.32 -12.3135 1148.81 -9.34913C1164.31 -8.89307 1180.05 -8.66505 1195.33 -9.57717C1206.5 -9.57717 1218.81 -10.2612 1229.3 -10.2612C1290.41 -10.2612 1355.4 -18.0142 1416.06 -24.399C1541.47 -37.1686 1663.01 -71.3728 1784.32 -104.437L1800.97 -109.226L1805.99 -92.3515C1809.41 -81.6341 1845.21 40.8171 1847.26 47.43C1770.41 69.3207 1693.11 90.5274 1614.9 108.77C1497.69 136.361 1378.89 159.164 1258.95 170.109L1231.13 172.39C1174.8 178.09 1118.02 172.39 1062.61 166.005C989.872 157.112 914.622 150.043 842.337 137.729C806.081 132.029 771.192 121.995 734.48 117.663C662.879 108.314 590.138 103.981 518.081 109.226C408.855 117.891 301.682 141.834 196.104 170.109C166.005 178.09 119.715 190.404 90.0711 200.437L88.2469 200.893H85.9666H71.8288H60.1994C47.4298 159.392 36.0284 116.295 26.2231 74.5654M57.235 87.107C69.0925 118.575 79.5818 148.675 88.4749 180.371L72.2849 168.285H86.4227L82.0901 168.969C93.9476 165.549 108.769 160.076 121.539 156.884C214.803 131.116 309.663 106.261 405.206 90.7554C441.919 84.8266 478.86 80.2661 516.028 77.3017C571.439 72.2851 628.446 67.4965 684.313 74.1093C730.831 77.9858 776.665 85.5108 822.499 96.2281C866.964 104.893 912.114 111.278 957.491 116.979C1011.99 124.048 1066.72 129.064 1121.44 132.485C1147.9 133.853 1175.26 136.361 1201.25 134.993C1264.65 130.888 1329.18 123.82 1391.66 113.786C1499.97 96.6841 1607.37 72.5131 1713.63 45.1497C1749.21 36.2566 1784.55 26.6794 1820.12 17.1022L1807.13 40.1331L1772.47 -82.3182L1794.36 -70.0047C1663.7 -33.9762 1529.16 -4.33246 1394.62 15.278C1359.28 19.3825 1320.97 21.4347 1285.4 23.715C1276.96 24.1711 1265.79 25.0832 1257.58 25.0832C1238.42 25.0832 1215.16 26.4514 1196.69 26.6794C1180.5 27.8196 1164.54 27.5915 1148.58 27.3635C1052.81 24.8552 957.035 20.9787 862.176 6.61287C855.791 5.70076 847.354 3.87656 841.197 2.50838C660.142 -38.3087 472.247 -7.98096 293.016 29.1877C224.836 44.0095 150.727 63.1639 83.0022 79.582L85.9666 78.4418C77.3015 82.3183 68.1804 84.5987 57.463 87.107" fill="#FFCB5A"/>
<path d="M78.2138 166.917C67.9525 141.378 59.2874 113.102 53.1306 86.1946C196.333 46.2896 341.131 8.89294 488.893 -10.4895C596.979 -24.6273 707.572 -27.3636 815.202 -6.15696C839.829 -0.68428 867.648 5.47249 892.96 8.66489C971.63 19.1542 1051.67 23.9428 1131.02 26.9072C1153.14 27.3632 1174.12 28.5034 1195.78 26.9072C1208.55 25.9951 1223.37 24.855 1236.14 24.1709C1271.71 21.6626 1307.06 21.8906 1342.63 19.3823C1395.53 14.5937 1448.21 7.29678 1500.66 -1.82436C1587.99 -16.8742 1674.64 -37.1688 1759.92 -61.1118L1777.25 -65.9004L1782.5 -48.3422C1786.38 -35.8007 1800.06 11.1732 1803.71 23.0307C1728.23 44.4654 1652.52 64.0759 1575.91 81.406C1452.77 109.226 1328.04 131.344 1201.71 138.641C1164.09 140.465 1076.07 129.064 1037.53 126.556C947.915 117.663 858.527 106.945 770.508 86.8787C719.202 77.5295 666.071 71.6008 613.625 72.969C453.777 76.3894 295.981 112.646 142.29 154.603L116.523 161.672L110.138 163.496C100.104 166.689 88.247 167.829 78.4418 167.373M94.4038 139.097L95.0879 137.957C96.6841 135.221 96.9121 132.94 97.5962 132.256C97.5962 132.256 98.0522 131.8 98.2803 131.8L101.017 131.116L107.401 129.292C316.047 73.197 532.447 23.7148 749.986 45.1495C768 47.4297 786.698 51.3063 804.485 55.1828C847.354 65.216 890.907 71.1447 934.917 77.3015C1005.38 86.4226 1076.52 94.6317 1147.44 98.5082C1164.09 99.1923 1182.56 100.332 1198.52 99.1922C1394.17 86.6507 1585.71 42.4131 1774.97 -8.43725L1761.75 15.0497L1746.7 -38.3089L1769.5 -25.5394C1691.52 -4.56076 1612.39 13.2255 1532.81 27.3633C1470.78 38.0806 1408.08 46.2896 1345.6 52.2184C1310.02 56.0948 1274.22 59.9714 1238.19 60.8835C1166.37 65.216 1093.62 62.0236 1022.02 58.1471C972.77 55.1827 923.059 51.3063 873.805 44.4654C852.827 41.729 828.2 36.2564 807.221 31.6958C773.017 25.311 738.356 21.4345 703.468 19.6103C598.347 14.1376 492.314 27.3633 388.561 45.8336C283.667 64.3039 180.143 89.387 76.8456 115.154L89.8432 93.0354C93.2636 108.541 93.2636 122.907 94.4038 139.325" fill="#B44A35"/>
<path d="M76.6174 112.646C214.119 76.3897 355.724 33.5203 497.558 18.4705C560.494 11.4016 624.342 7.52507 687.734 10.2614C705.52 11.4016 724.218 15.5061 742.005 16.1902C769.368 18.9265 796.503 22.3469 823.411 28.2757C838.917 31.6961 859.895 36.0286 875.401 38.3089C962.964 51.0785 1052.12 57.6913 1140.37 62.2519C1157.7 62.936 1174.8 63.8481 1191.9 63.1641C1199.89 62.936 1210.6 61.7958 1218.36 61.3398C1240.47 59.0595 1262.82 59.7436 1284.94 58.6035C1295.66 58.1474 1314.36 55.8671 1324.62 54.955C1368.4 50.1664 1413.09 43.7816 1456.42 36.4847C1491.76 32.3802 1526.88 26.4514 1561.54 18.9265C1631.32 4.33265 1700.64 -12.0854 1769.04 -31.4678L1777.25 -1.82407C1691.06 19.8386 1601.67 41.2733 1514.57 57.9194C1496.78 60.8837 1479.68 67.4966 1461.89 70.4609C1409.22 79.8101 1354.49 85.9669 1301.13 90.7555C1266.01 93.9479 1220.86 98.5084 1186.2 99.8766C1089.29 98.2804 992.38 89.6153 896.38 75.2495C871.297 71.3731 840.969 65.4443 816.342 59.2875C782.366 51.7626 747.477 46.0619 712.589 44.6937C695.031 45.1498 677.472 44.0096 659.914 42.8695C536.095 41.0452 412.731 64.9883 292.56 93.9479C242.622 106.033 186.755 118.803 136.589 130.204C119.259 134.081 101.701 137.957 84.1424 141.378L76.3894 112.874L76.6174 112.646Z" fill="#373B38"/>
<path d="M266.337 57.4633C269.301 69.0928 247.411 73.6533 245.13 62.2519C242.166 50.6224 264.057 45.3778 266.337 57.4633Z" fill="#F7F0E5"/>
<path d="M295.525 51.0783C298.261 64.0759 276.142 68.8645 273.178 56.0949C270.442 44.0094 293.017 38.9928 295.525 51.0783Z" fill="#F7F0E5"/>
<path d="M321.292 45.6056C324.256 57.463 305.558 61.1115 303.506 49.254C300.541 37.8526 319.468 33.7481 321.292 45.6056Z" fill="#F7F0E5"/>
<path d="M350.936 39.677C352.76 49.7102 334.746 53.1307 332.921 43.3254C330.869 32.8361 348.883 29.1877 350.936 39.677Z" fill="#F7F0E5"/>
<path d="M381.263 34.2041C383.544 47.4298 361.881 51.7623 359.373 38.3086C356.864 26.9072 379.439 23.0307 381.263 34.2041Z" fill="#F7F0E5"/>
<path d="M407.487 29.6436C409.767 40.1329 390.841 42.8693 389.245 32.836C387.192 21.6626 405.891 18.0142 407.487 29.6436Z" fill="#F7F0E5"/>
<path d="M438.499 24.8553C440.323 37.3968 419.344 41.5013 417.748 28.0477C415.012 14.1379 436.446 11.8576 438.499 24.8553Z" fill="#F7F0E5"/>
<path d="M465.634 21.2067C467.686 32.152 447.392 34.4323 446.024 23.943C444.199 12.7696 464.494 9.34917 465.634 21.2067Z" fill="#F7F0E5"/>
<path d="M492.998 17.7863C493.91 27.5915 476.352 30.784 475.439 19.8386C473.615 9.34931 491.857 8.43714 492.998 17.7863Z" fill="#F7F0E5"/>
<path d="M525.15 14.3659C526.746 27.1355 504.399 29.4158 503.487 16.4182C501.663 2.73648 524.238 0.684167 525.15 14.3659Z" fill="#F7F0E5"/>
<path d="M557.073 11.6296C557.757 24.1711 535.639 26.4514 534.499 13.4538C533.13 1.59627 556.161 0.000102043 557.073 11.6296Z" fill="#F7F0E5"/>
<path d="M584.209 9.80522C585.121 21.6627 564.826 22.1188 564.142 10.9454C563.458 0.684081 584.209 -1.36818 584.209 9.80522Z" fill="#F7F0E5"/>
<path d="M614.309 8.89335C614.993 20.7508 592.874 21.4349 592.418 9.80545C591.734 -2.05204 614.309 -3.42019 614.309 8.89335Z" fill="#F7F0E5"/>
<path d="M644.18 8.43705C644.18 21.6627 621.605 21.8907 621.149 8.66502C621.149 -3.87655 644.18 -4.33255 644.18 8.43705Z" fill="#F7F0E5"/>
<path d="M670.632 8.66515C670.632 20.7507 651.933 20.2947 652.39 8.43717C651.933 -3.42031 671.316 -3.19234 670.632 8.66515Z" fill="#F7F0E5"/>
<path d="M700.731 9.80528C700.047 19.8385 682.033 18.9264 682.261 8.89318C682.717 -2.05219 701.187 -0.912061 700.731 9.80528Z" fill="#F7F0E5"/>
<path d="M731.515 12.0855C730.147 25.3111 708.485 23.943 709.397 10.2613C709.853 -1.59622 732.884 0.684033 731.515 12.0855Z" fill="#F7F0E5"/>
<path d="M757.967 14.8222C757.055 25.5395 738.356 22.8032 739.496 12.7699C740.408 1.59653 759.791 3.19272 757.967 14.8222Z" fill="#F7F0E5"/>
<path d="M788.979 19.3824C786.926 31.9239 765.948 29.8717 768.228 16.418C769.596 2.28026 791.031 6.61278 788.979 19.3824Z" fill="#F7F0E5"/>
<path d="M816.114 24.3993C814.518 35.3446 794.679 31.0121 796.731 20.7508C798.556 9.57739 819.078 12.7698 816.114 24.3993Z" fill="#F7F0E5"/>
<path d="M843.021 30.328C840.741 39.6772 822.955 37.1689 825.691 26.6796C827.515 16.4183 845.074 21.2069 843.021 30.328Z" fill="#F7F0E5"/>
<path d="M874.717 36.0284C873.349 48.798 850.318 45.1496 853.283 32.38C855.563 18.9263 876.998 22.5747 874.717 36.0284Z" fill="#F7F0E5"/>
<path d="M906.413 40.361C904.817 53.1306 882.014 50.3942 884.066 37.3965C885.663 25.5391 907.781 28.9595 906.413 40.361Z" fill="#F7F0E5"/>
<path d="M933.321 43.0972C932.408 54.9547 912.114 51.9903 913.254 40.8169C914.394 30.7837 934.917 32.1519 933.321 43.0972Z" fill="#F7F0E5"/>
<path d="M963.42 46.0619C962.736 58.1474 940.389 55.6391 941.758 44.0096C942.67 32.1521 964.788 33.9764 963.42 46.0619Z" fill="#F7F0E5"/>
<path d="M993.292 48.5702C992.152 62.0239 969.577 59.9717 970.489 46.746C971.629 34.4325 994.204 36.0287 993.292 48.5702Z" fill="#F7F0E5"/>
<path d="M1019.52 50.3941C1019.29 62.4797 1000.13 61.1115 1001.5 49.254C1001.96 37.6245 1020.88 38.7647 1019.52 50.3941Z" fill="#F7F0E5"/>
<path d="M1049.61 51.9906C1048.93 62.0239 1030.69 61.1118 1031.14 50.8505C1031.83 40.1332 1050.07 41.2733 1049.61 51.9906Z" fill="#F7F0E5"/>
<path d="M1080.4 53.8147C1079.71 67.2684 1057.37 66.3563 1058.05 52.6746C1058.28 41.0451 1081.08 42.4133 1080.4 53.8147Z" fill="#F7F0E5"/>
<path d="M1106.85 54.7271C1106.85 65.4444 1087.7 64.3043 1088.38 54.043C1088.84 42.8696 1107.76 43.0976 1106.85 54.7271Z" fill="#F7F0E5"/>
<path d="M1138.32 55.8671C1138.09 68.6367 1116.43 68.8648 1117.34 55.1831C1117.34 41.0453 1138.55 42.8695 1138.32 55.8671Z" fill="#F7F0E5"/>
<path d="M1165.68 56.3231C1166.14 67.7245 1145.39 66.5843 1146.07 56.095C1146.07 44.9216 1166.37 44.4656 1165.68 56.3231Z" fill="#F7F0E5"/>
<path d="M1193.27 56.0951C1193.96 65.9004 1175.03 67.7246 1175.49 56.5512C1175.03 46.2899 1192.36 46.746 1193.27 56.0951Z" fill="#F7F0E5"/>
<path d="M1225.43 53.5869C1226.79 66.3565 1204.22 67.9527 1203.76 55.1831C1202.39 41.5014 1224.97 39.9052 1225.43 53.5869Z" fill="#F7F0E5"/>
<path d="M1257.35 51.5347C1258.03 64.0763 1235.46 65.9005 1234.77 52.9029C1233.86 40.8174 1256.66 39.9053 1257.35 51.5347Z" fill="#F7F0E5"/>
<path d="M1284.48 49.9385C1285.62 61.7959 1265.1 62.252 1264.42 51.3067C1263.73 41.0454 1284.26 38.9931 1284.48 49.9385Z" fill="#F7F0E5"/>
<path d="M1314.58 47.6582C1315.95 59.5157 1293.38 60.8839 1292.69 49.2545C1291.78 37.397 1313.9 35.3447 1314.58 47.6582Z" fill="#F7F0E5"/>
<path d="M1344.23 45.1498C1345.37 58.3754 1322.57 60.4278 1321.43 47.2021C1320.51 34.8886 1343.09 32.8363 1344.23 45.1498Z" fill="#F7F0E5"/>
<path d="M1370.45 42.4132C1372.28 54.2707 1353.12 56.3229 1352.44 44.2374C1350.84 32.6079 1369.77 30.5557 1370.45 42.4132Z" fill="#F7F0E5"/>
<path d="M1400.55 38.9928C1401.69 49.0261 1383.45 51.3064 1382.31 41.0451C1381.17 30.3277 1399.18 28.2755 1400.55 38.9928Z" fill="#F7F0E5"/>
<path d="M1431.11 35.3446C1432.7 48.5702 1410.58 51.9906 1408.99 38.3089C1407.16 26.9075 1429.74 24.1712 1431.11 35.3446Z" fill="#F7F0E5"/>
<path d="M1457.33 31.468C1459.38 42.1854 1440.23 44.2376 1439.09 33.9763C1437.49 22.8029 1455.96 19.8386 1457.33 31.468Z" fill="#F7F0E5"/>
<path d="M1488.34 26.9072C1490.39 39.4487 1469.19 43.7813 1467.82 30.0996C1465.08 16.1899 1486.29 14.1376 1488.34 26.9072Z" fill="#F7F0E5"/>
<path d="M1515.48 22.347C1517.99 33.2924 1497.46 36.2568 1496.09 25.5395C1494.04 14.3661 1513.88 10.4896 1515.48 22.347Z" fill="#F7F0E5"/>
<path d="M1542.61 17.5582C1544.21 27.1354 1526.65 31.6959 1525.28 20.7506C1523 10.7173 1540.79 8.20902 1542.61 17.5582Z" fill="#F7F0E5"/>
<path d="M1574.08 11.4016C1577.04 24.1712 1554.7 28.2757 1552.65 15.5061C1549.68 2.05241 1571.57 -2.05207 1574.08 11.4016Z" fill="#F7F0E5"/>
<path d="M1605.55 4.78875C1608.06 17.1023 1585.94 22.1189 1583.43 9.34932C1580.92 -2.50816 1603.27 -6.61268 1605.55 4.78875Z" fill="#F7F0E5"/>
<path d="M1632.23 -1.13993C1635.19 10.2615 1614.9 14.138 1612.62 3.1926C1610.34 -6.61262 1630.4 -12.0853 1632.23 -1.13993Z" fill="#F7F0E5"/>
<path d="M1574.76 49.4824C1571.8 37.8529 1593.46 33.2924 1595.97 44.6938C1598.71 56.3232 1577.27 61.5679 1574.76 49.4824Z" fill="#F7F0E5"/>
<path d="M1545.81 55.639C1543.07 42.6414 1564.96 37.8528 1567.92 50.8504C1570.43 62.9359 1548.31 67.9526 1545.81 55.639Z" fill="#F7F0E5"/>
<path d="M1520.27 61.1117C1517.3 49.2542 1535.77 45.8339 1537.82 57.4633C1540.56 68.8647 1522.09 72.7412 1520.27 61.1117Z" fill="#F7F0E5"/>
<path d="M1491.08 67.0404C1489.25 57.2352 1507.04 53.5867 1508.86 63.3919C1510.92 73.8812 1493.13 77.5297 1491.08 67.0404Z" fill="#F7F0E5"/>
<path d="M1461.21 72.7414C1458.93 59.5157 1480.36 55.1832 1482.87 68.6369C1485.38 80.0383 1463.03 83.9148 1461.21 72.7414Z" fill="#F7F0E5"/>
<path d="M829.339 69.0925C831.164 57.235 849.406 60.6555 846.898 72.285C845.301 83.9144 826.375 80.4939 829.339 69.0925Z" fill="#F7F0E5"/>
<path d="M799.924 62.9359C802.204 53.1307 819.762 56.7791 817.71 66.8123C815.43 77.3017 797.415 73.4252 799.924 62.9359Z" fill="#F7F0E5"/>
<path d="M770.052 56.7792C772.56 43.5535 794.679 47.43 791.715 61.1117C789.435 72.2851 768 67.7246 770.052 56.7792Z" fill="#F7F0E5"/>
<path d="M744.285 52.6746C745.197 41.9572 764.351 45.1496 762.299 55.4109C760.475 66.3562 742.233 64.304 744.285 52.6746Z" fill="#F7F0E5"/>
<path d="M713.273 48.798C714.413 36.0284 736.076 37.6246 733.796 51.0782C732.656 64.988 712.133 61.7956 713.273 48.798Z" fill="#F7F0E5"/>
<path d="M686.366 46.7461C686.366 35.3447 707.116 37.625 705.748 48.1143C704.836 59.2877 684.998 58.3756 686.366 46.7461Z" fill="#F7F0E5"/>
<path d="M659.002 45.3776C659.458 35.5724 677.473 35.1164 676.56 46.0618C676.56 56.5511 658.774 54.4988 659.002 45.3776Z" fill="#F7F0E5"/>
<path d="M627.078 45.1497C626.622 32.1521 649.197 32.3801 648.513 45.1497C648.513 58.6034 626.622 58.6034 627.078 45.1497Z" fill="#F7F0E5"/>
<path d="M595.382 45.8336C595.154 33.292 617.729 32.1519 617.729 45.3775C617.957 57.235 595.838 57.6911 595.382 45.8336Z" fill="#F7F0E5"/>
<path d="M568.475 46.9739C567.335 35.1164 587.857 34.8884 588.313 46.0618C588.77 56.3231 568.475 57.9193 568.475 46.9739Z" fill="#F7F0E5"/>
<path d="M538.831 49.026C537.463 36.9404 559.81 35.8003 560.494 47.4297C561.406 59.2872 539.515 61.1115 538.831 49.026Z" fill="#F7F0E5"/>
<path d="M509.415 51.7623C508.275 38.3086 530.622 36.2563 531.99 49.71C532.902 62.0235 510.784 64.3039 509.415 51.7623Z" fill="#F7F0E5"/>
<path d="M483.42 54.7271C481.368 42.6416 500.294 40.5893 501.207 52.6748C502.803 64.3043 484.332 66.5845 483.42 54.7271Z" fill="#F7F0E5"/>
<path d="M453.777 58.8315C452.408 48.7982 470.651 46.29 471.791 56.3232C473.159 67.0406 455.373 69.3208 453.777 58.8315Z" fill="#F7F0E5"/>
<path d="M423.677 63.1638C421.625 49.9382 443.515 46.2897 445.568 59.7434C447.62 71.1448 425.501 74.3372 423.677 63.1638Z" fill="#F7F0E5"/>
<path d="M397.682 67.7248C395.401 57.2355 414.328 54.4991 415.696 64.7604C417.52 75.9338 399.278 79.3542 397.682 67.7248Z" fill="#F7F0E5"/>
<path d="M367.126 73.1972C364.617 60.6556 385.596 55.867 387.42 69.5487C390.385 83.2304 369.634 85.9668 367.126 73.1972Z" fill="#F7F0E5"/>
<path d="M1655.26 -6.15665C1656.85 -0.22791 1652.29 5.70086 1646.14 4.56072C1638.84 3.42057 1636.56 -7.06875 1642.03 -11.6293C1647.05 -15.9619 1654.12 -12.0854 1655.26 -5.92861" fill="#F7F0E5"/>
<path d="M1677.15 -11.4014C1678.97 -5.01656 1673.27 3.87655 1666.2 6.86646e-05C1659.82 -2.9643 1658 -12.0854 1663.24 -16.874C1668.26 -21.4346 1676.01 -17.3301 1677.15 -11.4014Z" fill="#F7F0E5"/>
<path d="M1753.77 5.24452C1751.94 -2.28042 1759.92 -9.34926 1767.22 -7.75307C1768.82 -7.52504 1770.19 -6.84098 1771.33 -5.92886C1776.8 -1.82435 1776.57 7.29677 1770.64 10.9452C1764.94 14.8217 1755.59 11.8574 1753.54 5.01655" fill="#F7F0E5"/>
<path d="M1725.95 12.7696C1723.9 5.47264 1732.33 0.912031 1738.49 1.82414C1747.15 2.73626 1748.75 12.0854 1741.91 16.874C1736.66 20.9786 1727.54 20.0665 1725.72 12.7696" fill="#F7F0E5"/>
<path d="M1697.67 19.8384C1696.53 15.2778 1700.86 10.9452 1704.97 9.8051C1709.3 8.2089 1714.55 10.7173 1715.69 15.2778C1718.42 25.5391 1700.64 28.9596 1697.67 19.8384Z" fill="#F7F0E5"/>
<path d="M1664.84 28.2755C1662.78 20.7506 1670.99 14.8219 1678.06 15.5059C1687.18 16.19 1690.38 26.6793 1683.99 32.8361C1678.29 38.7649 1666.89 36.7126 1664.84 28.2755Z" fill="#F7F0E5"/>
<path d="M1632 36.2566C1630.4 28.2756 1639.75 21.8908 1647.05 23.487C1655.71 25.3112 1658.45 35.1164 1650.47 40.1331C1644.77 43.7815 1634.05 43.7815 1631.77 36.2566" fill="#F7F0E5"/>
<path d="M1604.18 42.8695C1602.58 35.5726 1610.57 30.328 1617.18 31.9242C1625.39 33.2923 1628.12 41.7294 1620.6 46.518C1615.58 49.9384 1605.78 50.1664 1604.18 42.8695Z" fill="#F7F0E5"/>
<path d="M236.922 64.0761C238.518 71.145 231.449 76.6176 224.836 75.0214C217.083 73.6533 214.347 64.9882 221.416 60.4276C226.432 56.7792 235.553 57.0072 237.15 64.0761" fill="#F7F0E5"/>
<path d="M67.4963 64.7604C69.0925 69.777 66.3562 74.5656 61.5676 76.1618C56.779 77.758 51.5343 75.4777 49.9381 70.4611C48.3419 65.4444 51.3063 60.4278 56.0949 58.8316C60.8835 57.2354 65.9001 59.7437 67.4963 64.9884" fill="#B44A35"/>
<path d="M91.4394 57.6912C92.8075 62.7078 89.8432 68.8646 85.0546 70.2327C80.266 71.6009 74.3372 68.1805 72.9691 62.9359C71.3729 57.9192 74.7933 52.4465 79.5819 50.8503C84.3705 49.4821 90.0712 52.2185 91.4394 57.4632" fill="#B44A35"/>
<path d="M112.646 51.7625C114.014 56.3231 112.19 61.5677 107.857 62.7078C103.525 63.848 99.1922 60.4275 98.052 55.867C96.6839 51.3064 98.5081 46.2898 103.069 44.9216C107.401 43.7815 111.506 46.9739 112.874 51.7625" fill="#B44A35"/>
<path d="M137.273 45.1497C138.413 49.2542 135.677 53.5868 131.8 54.7269C127.924 55.8671 123.363 53.3588 122.223 49.2543C121.083 45.1497 123.591 40.1331 127.468 39.221C131.344 38.0809 136.133 41.0452 137.045 45.3777" fill="#B44A35"/>
<path d="M162.128 38.765C163.496 44.0096 160.304 50.1664 155.515 51.3065C150.727 52.4467 145.254 48.5702 143.886 43.3255C142.518 38.0809 145.71 33.9763 150.499 32.6082C155.287 31.24 160.532 33.5203 161.9 38.765" fill="#B44A35"/>
<path d="M183.791 33.2923C184.931 37.8529 182.651 41.9574 178.546 42.8695C174.214 44.0096 169.881 41.5014 168.741 36.9408C167.601 32.3802 170.109 27.3636 174.442 26.2234C178.774 25.0833 182.651 28.5037 183.791 33.0643" fill="#B44A35"/>
<path d="M209.558 27.1353C210.698 32.3799 207.734 38.0807 202.945 39.2208C198.157 40.361 193.824 36.4845 192.456 31.2398C191.088 25.9952 193.14 20.2944 197.929 18.9262C202.717 17.7861 208.19 21.8906 209.558 26.9072" fill="#B44A35"/>
<path d="M231.905 21.6629C233.045 26.4515 230.765 30.556 226.204 31.6961C221.644 32.8363 217.083 30.556 215.943 25.5394C214.803 20.7508 217.767 15.9622 222.328 14.822C226.888 13.6819 230.993 16.8743 232.133 21.6629" fill="#B44A35"/>
<path d="M254.48 16.6462C255.392 20.7507 252.428 25.3113 248.551 26.2234C244.675 27.1355 241.026 24.1712 240.114 19.8387C239.202 15.7341 241.026 11.8576 245.131 10.9455C249.007 10.0334 253.796 12.3137 254.708 16.6462" fill="#B44A35"/>
<path d="M280.703 10.4891C281.843 15.9618 279.107 20.9784 274.09 22.1186C269.074 23.2587 264.285 19.8382 262.917 14.5936C261.777 9.1209 264.285 3.42021 269.53 2.28006C274.546 1.13992 279.563 5.24446 280.703 10.7171" fill="#B44A35"/>
<path d="M307.154 4.78878C308.294 10.0334 304.646 15.5061 299.857 16.6462C295.069 17.7864 289.824 14.1379 288.684 8.89327C287.544 3.64861 290.964 -0.911931 295.753 -2.05207C300.769 -3.19222 306.014 -0.455874 307.154 4.78878Z" fill="#B44A35"/>
<path d="M329.273 0.000236511C330.185 4.78884 327.677 9.34941 323.344 10.2615C318.784 11.1736 313.767 8.20926 312.855 3.42066C311.715 -1.36793 315.363 -5.47242 319.924 -6.38453C324.484 -7.29665 328.361 -5.0164 329.501 -0.227806" fill="#B44A35"/>
<path d="M354.128 -5.01653C355.268 0.228121 352.076 4.56069 347.059 5.70083C342.043 6.61295 337.254 4.10463 336.114 -1.14002C334.974 -6.38468 338.394 -11.1732 343.411 -12.0854C348.428 -12.9975 352.988 -10.0331 354.128 -4.78849" fill="#B44A35"/>
<path d="M378.755 -10.0334C379.667 -4.78878 376.247 0.911901 371.458 2.05204C366.442 2.96416 360.969 -0.91234 360.057 -6.157C358.917 -11.4017 362.793 -16.4183 367.582 -17.5584C372.598 -18.4705 377.843 -15.2781 378.755 -10.0334Z" fill="#B44A35"/>
<path d="M914.394 -4.33256C913.482 0.456039 909.378 3.87643 904.817 2.96431C900.256 1.82417 896.836 -2.96439 897.976 -7.75299C899.116 -12.5416 903.905 -14.5939 908.237 -13.6817C912.57 -12.7696 915.534 -9.12116 914.622 -4.33256" fill="#B44A35"/>
<path d="M939.477 -0.456018C938.793 4.78864 934.461 7.98109 929.216 7.29701C924.2 6.61292 920.323 2.05234 921.235 -3.19232C922.147 -8.43697 926.936 -11.6294 931.725 -10.9453C936.741 -10.2612 939.934 -5.92865 939.249 -0.68399" fill="#B44A35"/>
<path d="M964.332 2.2802C963.876 7.52485 958.86 12.3135 953.615 11.8574C948.598 11.1733 944.494 5.70065 945.178 0.455997C945.862 -4.78866 950.879 -8.43714 955.667 -7.98109C960.684 -7.52503 964.788 -2.96444 964.104 2.50824" fill="#B44A35"/>
<path d="M986.451 4.10455C985.995 8.89315 982.803 13.2257 978.242 12.7697C973.681 12.3136 970.945 7.52503 971.401 2.73644C971.857 -2.05216 975.278 -6.1567 979.838 -5.70065C984.399 -5.24459 986.907 -0.912076 986.679 4.10455" fill="#B44A35"/>
<path d="M1011.53 5.70067C1011.31 10.0332 1007.43 13.2256 1003.33 12.9976C999.221 12.7696 995.8 8.89308 996.028 4.78857C996.256 0.456028 1000.13 -3.42044 1004.24 -2.96439C1008.34 -2.73636 1011.76 1.59617 1011.53 5.92871" fill="#B44A35"/>
<path d="M1037.53 6.84109C1037.53 12.0857 1032.51 17.1024 1027.5 16.8743C1022.48 16.6463 1018.6 11.1736 1018.83 5.92899C1019.06 0.684333 1023.39 -2.50808 1028.41 -2.28005C1033.43 -2.28005 1037.76 1.59643 1037.53 6.84109Z" fill="#B44A35"/>
<path d="M1059.65 7.52478C1059.65 12.0854 1056.23 15.5058 1051.9 15.2778C1047.56 15.2778 1043.91 11.6293 1044.14 7.06876C1044.14 2.50819 1048.02 -1.82439 1052.58 -1.59636C1056.91 -1.59636 1059.88 2.96421 1059.65 7.52478Z" fill="#B44A35"/>
<path d="M1086.1 8.43695C1086.1 13.6816 1081.54 18.6982 1076.52 18.4702C1071.51 18.4702 1068.31 13.2255 1068.54 7.98086C1068.54 2.73621 1071.96 -2.50845 1076.98 -2.28042C1081.99 -2.28042 1086.1 3.19229 1086.1 8.43695Z" fill="#B44A35"/>
<path d="M1109.13 8.89339C1109.13 13.91 1105.94 17.1024 1101.15 17.1024C1096.36 17.1024 1092.48 13.682 1092.71 8.66534C1092.71 3.64872 1096.82 -0.22774 1101.38 0.000288421C1106.17 0.000288421 1109.13 4.1048 1109.13 9.12143" fill="#B44A35"/>
<path d="M1132.16 9.1211C1132.16 13.4536 1128.06 17.1021 1123.95 17.1021C1119.85 17.1021 1117.11 13.4536 1117.11 9.1211C1117.11 4.78856 1119.85 1.59619 1123.95 1.59619C1128.06 1.59619 1131.93 5.0166 1131.93 9.34915" fill="#B44A35"/>
<path d="M1159.3 8.89313C1159.3 14.3658 1155.42 18.9264 1150.18 18.9264C1144.93 18.9264 1141.05 14.5939 1141.05 9.12118C1141.05 3.64849 1144.93 -1.59619 1150.18 -1.59619C1155.42 -1.59619 1159.3 3.42045 1159.3 8.89313Z" fill="#B44A35"/>
<path d="M1186.2 8.8931C1186.2 14.1378 1181.64 18.9263 1176.63 18.9263C1171.61 18.9263 1167.28 14.3658 1167.28 9.12114C1167.28 3.87648 1171.38 0 1176.4 0C1181.42 0 1186.2 3.64844 1186.2 8.8931Z" fill="#B44A35"/>
<path d="M1209.01 8.43711C1209.01 13.2257 1205.81 17.3302 1201.03 17.5582C1196.47 17.5582 1192.13 13.6817 1191.9 8.89312C1191.9 4.10452 1196.01 0.684082 1200.57 0.684082C1205.13 0.684082 1208.55 3.64845 1208.78 8.66508" fill="#B44A35"/>
<path d="M1234.32 7.981C1234.32 13.2257 1230.67 17.1021 1225.43 17.1021C1220.41 17.1021 1216.08 13.6817 1215.85 8.20905C1215.85 2.96439 1219.95 -1.14014 1224.97 -1.14014C1229.99 -1.14014 1234.09 2.50832 1234.09 7.981" fill="#B44A35"/>
<path d="M1259.4 7.29692C1259.4 12.5416 1255.07 17.7862 1250.05 18.0142C1245.04 18.0142 1240.25 13.2256 1240.02 7.98098C1240.02 2.73632 1244.35 -1.82422 1249.37 -1.82422C1254.38 -1.82422 1258.95 2.05221 1259.17 7.52489" fill="#B44A35"/>
<path d="M1281.29 6.3848C1281.29 11.1734 1278.78 15.962 1274.22 15.962C1269.66 15.962 1266.24 11.6295 1266.24 6.84088C1266.24 2.05228 1268.98 -2.28027 1273.54 -2.5083C1278.1 -2.5083 1281.29 1.36817 1281.29 6.3848Z" fill="#B44A35"/>
<path d="M1306.6 5.01646C1306.83 9.349 1303.41 12.9974 1299.31 13.2254C1295.2 13.4535 1291.33 10.0331 1291.1 5.70052C1291.1 1.36797 1294.29 -2.73651 1298.39 -2.96454C1302.5 -3.19257 1306.38 0.683916 1306.6 5.01646Z" fill="#B44A35"/>
<path d="M1332.37 3.19239C1332.83 8.43705 1328.72 14.1378 1323.71 14.5938C1318.69 15.0499 1314.13 10.0333 1313.67 4.78862C1313.22 -0.456038 1317.09 -4.33254 1322.11 -4.56057C1327.13 -5.01662 1331.91 -2.05225 1332.37 3.42043" fill="#B44A35"/>
<path d="M1354.49 0.683968C1354.95 5.24454 1352.21 9.12108 1347.88 9.57714C1343.54 10.0332 1339.44 7.06879 1338.98 2.28019C1338.53 -2.28038 1341.72 -7.06895 1346.05 -7.525C1350.38 -7.98106 1353.81 -4.10463 1354.49 0.683968Z" fill="#B44A35"/>
<path d="M1380.71 -2.28024C1381.4 2.96441 1377.75 8.4371 1372.73 9.12118C1367.71 9.80527 1363.84 5.2447 1363.38 4.19617e-05C1362.7 -5.24461 1365.21 -10.9453 1370.22 -11.4014C1375.24 -12.0855 1380.03 -7.29686 1380.71 -2.0522" fill="#B44A35"/>
<path d="M1403.52 -5.47252C1404.2 -0.455897 1401.46 3.19257 1396.9 3.87666C1392.11 4.56074 1387.78 1.82439 1387.33 -3.19224C1386.64 -8.20887 1390.06 -12.5414 1394.62 -13.2255C1399.18 -13.9096 1403.06 -10.4892 1403.74 -5.47252" fill="#B44A35"/>
<path d="M1426.55 -8.66496C1427.23 -4.33242 1423.81 -0.227902 1419.71 0.456183C1415.6 1.14027 1412.41 -2.28016 1411.72 -6.38467C1411.04 -10.7172 1413.32 -14.3657 1417.42 -14.8218C1421.53 -15.5058 1425.86 -12.7695 1426.55 -8.43698" fill="#B44A35"/>
<path d="M1814.65 34.2041C1816.02 38.9927 1813.74 43.5533 1809.41 44.9214C1804.85 46.0616 1799.83 43.5532 1798.46 38.7646C1797.09 33.976 1800.51 29.8715 1804.85 28.5034C1809.18 27.3632 1813.51 29.4155 1814.88 34.2041" fill="#B44A35"/>
<path d="M1716.6 61.1115C1717.74 65.216 1715 70.0047 1711.13 71.1448C1707.25 72.285 1703.6 69.5486 1702.46 65.4441C1701.32 61.3396 1702.92 57.2351 1707.02 56.0949C1710.9 54.9548 1715.69 57.007 1716.83 61.1115" fill="#B44A35"/>
<path d="M1742.37 53.1308C1743.96 58.3754 1741.68 63.8482 1736.66 65.4444C1731.65 67.0406 1726.63 63.8482 1725.04 58.6035C1723.44 53.3589 1725.72 47.4301 1730.74 45.8339C1735.75 44.2377 1740.77 47.8861 1742.59 53.1308" fill="#B44A35"/>
<path d="M1768.13 44.9218C1769.96 49.9384 1766.76 55.8671 1761.98 57.4633C1757.19 59.0595 1751.71 55.8671 1749.89 50.8505C1748.29 45.8338 1751.26 41.0452 1755.82 39.449C1760.61 38.0809 1766.08 39.9052 1767.9 44.9218" fill="#B44A35"/>
<path d="M1789.57 37.1687C1791.16 41.7292 1789.34 46.7459 1785.01 48.1141C1780.67 49.7103 1775.2 47.202 1773.61 42.6414C1772.01 38.0808 1774.97 33.5202 1779.31 32.1521C1783.64 30.5559 1787.97 32.6081 1789.57 37.1687Z" fill="#B44A35"/>
</g>
<mask id="mask1_157_6296" style="mask-type:luminance" maskUnits="userSpaceOnUse" x="1122" y="0" width="798" height="59">
<path d="M1919.77 0H1122.81V58.6033H1919.77V0Z" fill="white"/>
</mask>
<g mask="url(#mask1_157_6296)">
<path d="M1888.08 -285.491C1857.52 -395.629 1818.76 -513.976 1771.78 -552.741C1724.81 -591.506 1641.81 -653.529 1582.06 -628.218C1543.3 -611.8 1506.58 -573.035 1533.04 -530.166C1559.49 -487.297 1616.72 -432.114 1637.02 -356.636C1657.31 -281.159 1688.09 -225.976 1683.99 -185.159C1679.89 -144.342 1661.64 -91.2112 1639.07 -83.2302C1616.72 -75.0212 1587.99 -62.7077 1567.7 -70.9167C1547.17 -79.1257 1494.27 -87.3347 1469.64 -124.047C1445.24 -160.76 1412.41 -215.943 1406.48 -309.663C1400.32 -403.61 1394.17 -526.062 1290.19 -528.114C1192.13 -529.938 1167.73 -417.976 1188.26 -295.525C1208.78 -173.073 1296.34 31.012 1386.19 82.0904C1476.03 133.169 1567.92 188.124 1714.77 112.646C1861.62 37.1688 1918.86 -175.126 1888.3 -285.263" fill="#373B38"/>
<path d="M1325.3 -242.166C1317.32 -202.261 1301.81 -140.237 1350.16 -122.679L1358.59 -119.715C1375.7 -113.558 1393.48 -107.629 1409.67 -98.9643C1443.88 -82.7743 1473.75 -51.5345 1488.57 -16.4181C1502.25 12.9976 1519.35 49.4822 1538.05 73.8813C1551.96 90.5273 1574.08 94.8599 1594.6 95.772C1608.06 96.4561 1621.97 93.0357 1635.19 89.3872C1643.4 88.0191 1646.37 86.6508 1654.35 80.494C1671.22 67.2684 1682.85 50.6224 1685.36 28.9597C1690.15 6.10352e-05 1703.37 -37.8527 1731.88 -56.551L1746.93 -67.0403C1772.92 -87.7909 1815.11 -100.561 1824 -134.993C1828.33 -175.582 1823.54 -220.504 1800.29 -254.936C1786.83 -273.178 1769.73 -291.876 1756.5 -311.715C1741.68 -332.922 1730.28 -359.601 1734.16 -386.508L1758.1 -383.316C1752.17 -338.394 1795.27 -303.05 1819.44 -268.162C1847.26 -224.836 1861.4 -170.337 1847.49 -119.943C1827.42 -77.7577 1783.18 -60.1995 1748.52 -33.7482C1720.25 -15.0498 1716.37 20.2945 1708.16 53.1306C1698.36 80.266 1677.61 100.561 1651.15 112.19C1646.14 113.786 1638.16 114.698 1632.68 116.295C1587.99 128.152 1534.86 114.926 1507.72 75.9335C1486.06 42.6413 1469.64 -2.73633 1447.75 -33.5202C1422.67 -67.9525 1379.12 -82.3183 1339.9 -96C1306.83 -107.401 1289.5 -140.466 1290.41 -173.53C1290.19 -199.981 1296.34 -224.152 1303.18 -247.411L1325.76 -242.394L1325.3 -242.166Z" fill="#F7F0E5"/>
<path d="M1808.49 -567.107C1730.96 -648.741 1604.41 -705.976 1524.83 -634.375C1443.19 -560.95 1530.98 -438.499 1582.06 -354.812C1633.14 -271.126 1651.38 -203.857 1649.33 -179.23C1647.28 -154.831 1630.86 -116.066 1608.51 -114.014C1586.17 -111.962 1520.72 -114.014 1490.17 -160.988C1459.61 -207.962 1437.04 -338.622 1439.09 -424.361C1441.14 -510.1 1379.8 -579.42 1277.87 -569.159C1159.98 -557.302 1122.81 -414.1 1155.42 -259.04C1188.03 -103.981 1293.83 292.789 1706.34 155.287C2092.16 26.6794 1886.02 -485.473 1808.27 -567.107M1714.77 112.418C1567.92 187.896 1476.03 132.713 1386.19 81.8623C1310.94 39.2209 1237.28 -111.05 1203.31 -230.765C1196.69 -231.905 1189.62 -233.501 1181.64 -235.097L1188.26 -265.197C1190.54 -264.741 1192.59 -264.285 1194.87 -263.829C1192.36 -275.002 1190.08 -285.492 1188.48 -295.753C1188.03 -298.717 1187.57 -301.682 1187.12 -304.646C1179.36 -305.558 1171.84 -307.154 1164.77 -310.803L1167.28 -333.834C1172.75 -332.922 1178.22 -332.466 1183.92 -332.466C1173.89 -439.639 1202.62 -530.166 1290.64 -528.57C1377.75 -526.974 1396.22 -440.779 1403.52 -357.777C1408.08 -358.917 1412.86 -360.285 1418.34 -361.197L1420.39 -337.254C1415.83 -337.254 1410.58 -336.114 1405.57 -334.746C1406.25 -326.537 1406.71 -318.328 1407.16 -310.347C1407.62 -301.91 1408.53 -293.929 1409.44 -286.176C1411.27 -286.176 1413.32 -286.632 1414.92 -286.176L1413.09 -260.865C1425.18 -196.104 1450.49 -154.147 1470.33 -124.504C1494.73 -87.791 1547.86 -79.5818 1568.38 -71.3728C1588.9 -63.1638 1617.41 -75.4774 1639.75 -83.6865C1662.1 -91.8955 1680.57 -144.798 1684.67 -185.615C1688.32 -222.1 1664.38 -269.986 1644.54 -333.606C1644.09 -333.378 1643.63 -333.15 1643.4 -332.694L1622.65 -355.496C1626.3 -358.689 1630.63 -361.425 1635.65 -363.705C1631.09 -378.983 1624.93 -393.577 1617.86 -407.259C1614.21 -406.575 1610.57 -405.663 1607.37 -405.207L1601.22 -435.534C1601.22 -435.534 1601.22 -435.534 1601.67 -435.534C1577.96 -473.159 1549.91 -504.171 1533.72 -530.622C1507.27 -573.492 1543.98 -612.256 1582.75 -628.674C1642.49 -653.758 1725.49 -591.962 1772.47 -553.197C1775.66 -550.689 1778.62 -547.724 1781.81 -544.304C1784.1 -548.18 1785.69 -550.689 1785.69 -550.689L1812.37 -535.183C1812.14 -534.727 1807.81 -527.43 1801.43 -517.853C1807.58 -508.047 1813.51 -497.33 1819.21 -485.473C1819.9 -486.157 1820.35 -486.841 1821.04 -487.525L1844.75 -467.686C1840.87 -463.126 1837 -458.565 1833.35 -454.233C1854.1 -404.294 1872.57 -343.867 1888.76 -285.72C1919.32 -175.582 1862.31 36.7127 1715.23 112.19" fill="#55C3BB"/>
<path d="M1793.22 -10.4891C1757.19 -37.8525 1720.48 5.24492 1750.12 37.625C1781.81 63.6202 1828.56 17.3304 1793.22 -10.4891ZM1759.92 2.05251C1764.26 -6.15652 1776.11 -5.01638 1782.5 2.05251C1791.62 10.2615 1789.34 23.0311 1778.39 27.3637C1774.75 32.8364 1764.03 31.2402 1760.38 26.6796L1759.92 27.1356C1757.87 18.9266 1754.91 9.80549 1759.92 2.28055" fill="#FFCB5A"/>
<path d="M1778.17 27.1354C1789.11 22.8028 1791.39 10.0332 1782.27 1.82421C1776.11 -5.01665 1764.03 -6.15679 1759.7 1.82421C1754.68 9.34915 1757.64 18.4703 1759.7 26.6794L1760.15 26.2233C1763.8 30.7839 1774.52 32.6081 1778.17 26.9073" fill="#C1573B"/>
<path d="M1568.61 33.7481C1576.59 85.0545 1643.17 83.0023 1646.82 31.4678C1644.54 -16.6462 1564.28 -17.1023 1568.61 33.7481ZM1608.51 54.4987C1596.66 57.007 1584.57 44.2374 1585.25 32.836C1584.57 21.4346 1594.6 11.4013 1607.14 11.6294C1611.93 12.0854 1616.49 13.2256 1620.83 13.6816C1627.44 17.102 1632.46 24.1709 1631.77 31.4678H1632.46C1627.67 41.9571 1620.6 53.1305 1608.51 54.4987Z" fill="#FFCB5A"/>
<path d="M1620.83 13.682C1616.27 13.226 1611.71 11.8578 1607.15 11.6298C1594.38 11.4018 1584.57 21.435 1585.25 32.8364C1584.8 44.2378 1596.66 57.0074 1608.51 54.4991C1620.6 52.9029 1627.67 41.7295 1632.46 31.4682H1631.77C1632.46 24.1713 1627.44 17.3305 1620.83 13.682Z" fill="#C1573B"/>
<path d="M1361.79 18.6985C1370.91 77.0738 1447.07 75.0215 1450.95 15.9621C1448.44 -39.2208 1356.54 -39.6768 1361.79 18.6985ZM1407.16 42.4135C1393.48 45.1498 1379.8 30.784 1380.48 17.5584C1379.8 4.56074 1390.97 -6.8407 1405.57 -6.61267C1411.04 -6.15662 1416.29 -4.78845 1421.3 -4.33239C1428.83 -0.455904 1434.53 7.75311 1433.62 15.9621H1434.3C1428.83 27.8196 1420.85 40.5892 1406.94 42.1854" fill="#FFCB5A"/>
<path d="M1421.3 -4.10454C1416.29 -4.56059 1411.04 -6.15679 1405.57 -6.38482C1390.97 -6.61285 1379.8 4.78852 1380.48 17.7861C1379.8 30.7838 1393.48 45.3776 1407.16 42.6413C1420.85 41.0451 1429.05 28.2755 1434.53 16.418H1433.84C1434.76 8.209 1428.83 0.22795 1421.53 -3.87656" fill="#C1573B"/>
</g>
<mask id="mask2_157_6296" style="mask-type:luminance" maskUnits="userSpaceOnUse" x="0" y="0" width="1920" height="59">
<path d="M1919.77 0H0V58.6033H1919.77V0Z" fill="white"/>
</mask>
<g mask="url(#mask2_157_6296)">
<path d="M321.52 142.746C318.556 131.572 312.627 118.347 310.575 106.945C310.119 104.437 307.382 103.753 306.242 102.157C295.525 91.8955 281.159 75.7054 268.389 66.8123C260.408 62.0237 247.183 60.6555 235.097 56.551C226.432 54.2707 210.014 47.4299 201.805 48.57C199.753 49.7102 198.385 49.7102 195.876 50.1663C193.368 50.6223 190.176 52.6746 186.755 54.0428C183.791 55.1829 180.142 56.5511 177.178 57.2352C159.62 64.076 149.358 87.1069 132.484 98.7363C131.344 99.6484 130.432 100.333 129.292 101.017C137.045 103.981 145.026 106.945 152.779 109.91C154.831 107.629 157.111 105.121 159.164 102.613C168.741 90.9834 183.563 83.9145 197.929 79.81C202.489 78.2138 205.454 80.4941 211.382 78.8979C230.993 76.6176 251.515 82.0902 267.705 93.0356C273.634 100.561 281.387 104.437 286.404 112.874C290.964 123.819 295.069 134.537 295.753 146.622C302.138 146.622 311.031 146.622 321.748 145.71C321.748 144.798 321.748 143.43 321.292 142.29" fill="#C1573B"/>
<path d="M140.009 -159.848C160.304 -157.112 152.323 -127.696 133.853 -130.432C114.698 -136.361 119.487 -162.128 140.009 -159.848ZM189.036 -92.3515C203.629 -84.8266 196.332 -63.3919 180.142 -67.9525C164.18 -72.9691 174.442 -97.1401 189.036 -92.3515ZM253.34 -61.1116C263.829 -73.6532 283.211 -61.7957 275.23 -47.2019C266.793 -32.8361 245.587 -48.114 253.34 -61.1116ZM338.622 -62.7078C353.216 -55.1829 345.919 -33.7482 329.729 -38.3087C313.767 -43.3254 324.028 -67.4964 338.622 -62.7078ZM395.173 -100.561C413.872 -98.0523 406.575 -71.1449 389.473 -73.6532C371.686 -78.8978 376.247 -102.613 395.173 -100.561ZM105.577 -130.204C106.717 -118.575 114.698 -100.561 117.435 -88.019C117.891 -86.1948 118.803 -85.5107 118.803 -83.6865C118.575 -81.8622 119.943 -80.4941 121.083 -78.8979C122.451 -77.3017 122.451 -77.5297 124.047 -76.3895C142.062 -66.1283 163.04 -59.5154 183.563 -56.551C186.299 -56.323 188.807 -56.095 191.316 -56.095C202.033 -58.8314 212.979 -59.0593 222.328 -51.9904C234.869 -44.2375 246.043 -31.696 257.444 -22.8028C258.584 -22.1187 259.952 -20.9786 260.408 -20.9786C262.461 -20.5226 265.653 -20.7506 268.617 -20.7506C288 -20.7506 308.979 -23.0309 326.993 -13.4536C336.57 -6.84082 340.902 -1.82419 347.743 7.29695C362.337 8.20908 378.755 2.05229 389.701 -6.61279C392.209 -8.43703 392.665 -11.4014 395.857 -12.5415C402.242 -26.9073 401.786 -42.1852 413.872 -55.6389C419.344 -63.1639 428.237 -66.1283 436.218 -69.7767C439.411 -71.3729 443.743 -72.7411 446.936 -73.8812C448.532 -74.3373 450.812 -73.8812 452.408 -74.7933L457.425 -76.8456C459.705 -77.7577 461.758 -78.6698 464.038 -79.5819C456.285 -88.247 447.392 -96.456 436.446 -103.297C425.273 -110.138 407.943 -120.399 387.876 -131.344C385.14 -128.836 378.755 -124.732 375.791 -122.679C367.582 -117.663 362.337 -113.558 355.04 -106.945C352.304 -104.893 349.568 -101.245 346.147 -99.8764C333.15 -94.6318 322.432 -96.456 310.119 -92.1235C286.176 -83.0023 260.18 -90.7554 236.465 -96.228C223.468 -99.1924 209.33 -100.104 199.297 -110.594C193.824 -116.295 192.456 -118.119 186.983 -121.767C181.055 -125.872 176.038 -132.941 173.302 -139.097C165.777 -155.515 160.532 -171.249 157.112 -188.58C142.974 -188.58 131.8 -187.667 123.591 -185.159C104.665 -179.23 84.5985 -174.442 71.6008 -169.425C77.0735 -166.461 82.5462 -163.268 87.1068 -158.936C95.5438 -151.411 102.385 -140.694 105.577 -129.976" fill="#C1573B"/>
<path d="M355.496 127.924C337.71 122.679 342.271 98.9641 361.197 101.016C379.895 103.525 372.599 130.432 355.496 127.924ZM316.96 63.3917C300.998 58.3751 311.259 34.2041 325.853 38.9927C340.447 46.5176 333.15 67.9523 316.96 63.3917ZM278.423 34.2041C262.461 29.1875 272.722 5.01641 287.316 9.80501C301.91 17.3299 294.613 38.7647 278.423 34.2041ZM206.138 14.5936C186.983 8.66488 191.772 -17.1023 212.294 -14.822C232.589 -12.0857 224.608 17.33 206.138 14.5936ZM138.869 23.4867C122.907 18.4701 133.169 -5.70089 147.762 -0.912289C162.356 6.61265 155.059 28.0473 138.869 23.4867ZM80.9501 57.463C61.5677 51.9903 66.5843 28.0473 87.3349 30.0996C107.857 32.6079 99.8764 59.9713 80.9501 57.463ZM386.052 124.275C387.876 116.75 391.297 108.313 389.245 101.701C386.508 92.1233 373.283 89.387 365.53 84.3704C345.007 74.3371 340.903 52.2183 339.078 31.6958C337.71 20.2943 332.694 14.5936 323.344 7.52472C319.468 4.56035 318.1 2.96421 314.679 1.59604C296.665 -4.10468 277.283 -0.684288 258.356 -2.50852C245.359 -4.7888 234.869 -18.9265 225.52 -27.1356C218.223 -33.2923 210.926 -41.9575 201.349 -41.2734C201.349 -41.2734 200.893 -41.2734 200.665 -41.2734C199.525 -40.5893 198.157 -40.1332 196.561 -40.1332C195.876 -40.1332 195.42 -40.1332 194.736 -40.1332C186.299 -38.081 177.406 -34.2045 169.653 -30.784C159.62 -25.3114 147.078 -22.119 135.221 -23.2591C119.943 -25.0834 106.489 -34.2045 95.0879 -40.3613C68.4085 -55.6392 64.304 -47.6582 43.7814 -27.3636C33.9762 -18.9266 26.2232 -13.2258 19.8384 -4.56076C15.5059 1.36798 11.6294 7.98082 7.98096 15.0497C22.8028 36.2564 43.5534 61.3395 57.9192 70.0046C66.3563 75.0212 86.1947 83.6863 109.454 92.8074C131.8 74.1091 145.254 43.3252 176.266 36.7124C183.791 35.1162 191.772 28.0473 200.437 30.0996C215.259 30.0996 226.888 34.2041 240.114 36.9405L258.356 40.8169C271.354 42.8692 287.316 51.3063 295.525 62.0236C302.594 74.3371 313.083 77.5295 322.204 89.843C326.081 95.9998 326.993 104.893 328.589 110.822C330.869 121.995 337.938 132.484 338.622 144.114C352.988 142.746 368.722 140.921 383.544 138.641C383.544 133.624 384.228 128.608 385.368 123.591" fill="#C1573B"/>
<path d="M413.188 45.6056C408.399 -10.7175 493.226 -10.0334 495.506 42.8692C491.857 99.8763 421.625 101.929 413.188 45.6056ZM474.983 -67.4966C468.37 -64.5322 460.845 -61.3398 458.793 -60.4277C456.969 -59.7436 455.829 -57.4633 454.005 -56.7792C437.131 -52.4467 426.185 -43.7816 419.572 -26.6795C416.608 -19.6106 414.328 -11.8576 410.907 -5.01678C410.451 -2.7365 409.083 -0.684242 407.259 0.683929C394.945 15.0497 375.791 26.4512 356.408 25.5391C357.777 32.38 358.461 39.2207 359.829 46.2896C362.565 58.6032 368.494 70.4607 381.036 74.5652C400.418 81.6341 410.451 99.6483 404.066 119.259C402.242 125.416 400.874 130.888 400.646 136.817C417.292 134.081 431.202 130.888 438.271 127.696C462.898 117.207 507.135 84.3705 513.064 54.0427C518.993 23.7149 515.344 -21.8908 499.154 -38.3089C491.629 -45.8338 484.104 -56.5512 475.439 -67.4966" fill="#C1573B"/>
<path d="M380.807 74.3372C368.266 70.2327 362.565 58.3752 359.601 46.0617C358.233 39.2209 357.548 32.152 356.18 25.3111C375.791 26.4512 394.717 15.0498 407.031 0.456009C408.855 -0.912155 410.223 -2.96442 410.679 -5.24471C414.1 -12.3136 416.152 -20.0666 419.344 -27.1355C425.957 -44.2376 436.902 -52.9027 453.776 -57.2352C455.601 -57.9193 456.741 -60.1996 458.565 -60.8837C460.845 -61.7958 468.142 -64.9882 474.755 -67.9525C471.563 -72.0571 467.914 -76.3896 464.266 -80.4941C461.986 -79.582 459.933 -78.6699 457.653 -77.5298L452.636 -75.4775C451.04 -74.7934 448.988 -75.2495 447.164 -74.5654C443.743 -73.1973 439.639 -72.0571 436.446 -70.4609C428.693 -67.0404 419.572 -63.8481 414.1 -56.3231C402.014 -42.8695 402.242 -27.5915 396.085 -13.2257C392.893 -11.8575 392.437 -9.12125 389.928 -7.29701C378.755 1.36807 362.565 7.52486 347.971 6.61273C341.13 -2.50841 337.026 -7.52504 327.221 -14.1379C309.206 -23.487 288.228 -21.2067 268.845 -21.4347C265.653 -21.4347 262.461 -21.4348 260.636 -21.6628C260.18 -21.6628 258.812 -22.8029 257.672 -23.487C246.271 -32.1521 235.097 -44.9217 222.556 -52.6747C213.206 -59.7436 202.261 -59.5155 191.544 -56.7792C189.035 -56.7792 186.527 -56.7792 183.791 -57.2352C163.04 -60.1996 142.062 -66.8124 124.275 -77.0737C122.679 -78.2138 122.451 -78.2138 121.311 -79.582C120.171 -81.1782 118.803 -82.3184 119.031 -84.3706C119.031 -85.9668 118.119 -86.8789 117.662 -88.7032C114.926 -101.245 106.717 -119.259 105.805 -130.888C102.613 -141.834 95.7717 -152.323 87.3347 -159.848C82.7741 -164.181 77.3014 -167.373 71.8288 -170.337C67.0402 -168.513 63.3917 -166.917 60.8834 -164.865C60.4273 -164.409 59.7432 -163.953 59.0592 -163.269C59.0592 -163.269 58.6031 -162.812 58.3751 -162.584C57.919 -162.128 57.2349 -161.444 56.7789 -160.988C56.5508 -160.76 56.0948 -160.304 55.8668 -160.076C55.4107 -159.62 54.9546 -159.164 54.4986 -158.48C64.3038 -151.639 75.7052 -146.394 83.0022 -137.501C86.6506 -132.713 88.0188 -130.432 89.1589 -124.504C96.9119 -108.77 93.2634 -90.7554 103.069 -74.7934C105.121 -72.0571 108.085 -66.5844 111.05 -64.5321C120.171 -56.7791 130.66 -53.3588 141.834 -51.5345C148.674 -49.4823 155.287 -47.6581 161.9 -45.8338C156.883 -44.6937 152.095 -43.0974 147.762 -41.7293C142.746 -40.3611 139.553 -40.1331 134.765 -41.7293C119.715 -45.8338 103.981 -60.1996 87.1067 -65.6723C62.0235 -74.7934 47.2017 -58.8314 31.9238 -42.8694C23.4867 -35.5725 12.5413 -26.4514 5.47245 -15.278C2.50808 -10.9455 0.227795 -6.38486 -2.05249 -2.05232C0.91188 2.96431 4.56034 8.43697 8.89288 14.5937C12.5413 7.52486 16.4178 0.912003 20.7504 -5.01672C26.9071 -13.6818 34.6601 -19.3825 44.6934 -27.8196C65.2159 -48.1141 69.3204 -56.0951 95.9998 -40.8172C107.401 -34.8884 120.855 -25.5393 136.133 -23.715C147.99 -22.8029 160.532 -25.7673 170.565 -31.24C178.546 -34.8885 187.439 -38.7649 195.648 -40.5891C196.332 -40.5891 196.788 -40.5891 197.472 -40.5891C199.069 -40.5891 200.437 -41.0452 201.577 -41.7293C201.577 -41.7293 202.033 -41.7293 202.261 -41.7293C211.838 -42.4134 219.135 -33.7483 226.432 -27.5915C235.781 -19.3825 246.271 -5.24471 259.268 -2.96442C278.195 -1.1402 297.577 -4.78868 315.591 1.14006C319.012 2.50824 320.38 4.10445 324.256 7.06882C333.377 14.1377 338.394 19.8384 339.99 31.2399C341.815 51.7624 345.919 73.6531 366.442 83.9144C374.423 88.703 387.42 91.4393 390.157 101.245C392.209 107.857 388.788 116.294 386.964 123.819C385.824 128.836 385.368 133.853 385.14 138.869C390.613 137.957 396.085 137.273 401.102 136.361C401.102 130.432 402.698 124.96 404.522 118.803C410.907 99.1924 400.874 81.1781 381.491 74.1092" fill="#F7F0E5"/>
<path d="M322.888 90.5271C313.539 78.2136 303.05 75.0212 296.209 62.7076C288 52.2183 271.81 43.5533 259.04 41.501L240.798 37.6245C227.572 34.8881 215.715 30.7836 201.121 30.7836C192.456 28.7314 184.475 35.8002 176.95 37.3964C146.166 44.0093 132.713 74.5651 110.138 93.4915C116.522 95.9998 123.135 98.7361 129.976 101.244C131.116 100.332 132.256 99.6482 133.169 98.9641C149.815 87.5627 160.076 64.3038 177.862 57.463C180.827 56.5509 184.703 55.4107 187.439 54.2705C190.86 52.9024 193.824 50.8502 196.56 50.3941C199.297 49.938 200.437 49.71 202.489 48.7979C210.926 47.6577 227.116 54.4986 235.781 56.7789C247.867 60.8834 261.093 62.2516 269.074 67.0401C281.615 75.9333 296.209 91.8953 306.926 102.385C308.066 103.981 310.575 104.665 311.259 107.173C313.311 118.575 319.24 131.8 322.204 142.974C322.66 144.114 322.66 145.482 322.66 146.394C328.133 145.938 333.834 145.482 339.99 145.026C339.078 133.396 332.009 122.907 329.957 111.734C328.133 105.805 327.449 96.9119 323.572 90.7551" fill="#373B38"/>
<path d="M468.142 23.4868C464.494 23.2588 461.074 22.3467 457.425 21.6626C456.285 21.6626 454.917 21.2065 453.777 21.2065C447.164 21.2065 441.007 23.7149 436.903 28.0474C432.798 32.3799 430.29 38.3087 430.518 44.4655C430.062 57.007 442.603 70.9168 455.145 68.4085C467.914 66.8123 475.439 54.4987 480.456 43.0973H479.772C480.684 35.1163 475.211 27.3633 468.37 23.4868" fill="#55C3BB"/>
<path d="M147.534 -0.684279C132.94 -5.47288 122.679 18.6981 138.641 23.7147C154.831 28.5033 162.128 6.84066 147.534 -0.684279Z" fill="#F7F0E5"/>
<path d="M287.088 9.80498C272.494 5.01638 262.233 29.1874 278.195 34.2041C294.385 38.9927 301.682 17.3299 287.088 9.80498Z" fill="#F7F0E5"/>
<path d="M325.625 38.993C311.031 34.2044 300.769 58.3753 316.731 63.392C332.921 68.1806 340.218 46.5179 325.625 38.993Z" fill="#F7F0E5"/>
<path d="M212.294 -14.8219C191.772 -17.1022 186.983 8.66501 206.138 14.5937C224.608 17.3301 232.817 -12.0856 212.294 -14.8219Z" fill="#F7F0E5"/>
<path d="M87.1069 30.0995C66.3563 28.0472 61.3397 51.9902 80.7221 57.4629C99.4204 59.9712 107.629 32.6078 87.1069 30.0995Z" fill="#F7F0E5"/>
<path d="M455.145 68.4086C442.603 71.1449 430.062 57.2352 430.518 44.4656C430.062 38.3088 432.57 32.3801 436.903 28.0475C441.007 23.715 447.164 20.9787 453.777 21.2067C455.145 21.2067 456.285 21.4347 457.425 21.6628C461.074 22.3468 464.722 23.2589 468.142 23.487C474.983 27.3634 480.456 35.1164 479.544 43.0974H480.228C475.211 54.4989 467.686 66.8124 454.917 68.4086M413.188 45.6058C421.625 101.929 491.857 99.8765 495.506 42.8694C492.998 -10.2613 408.399 -10.7173 413.188 45.6058Z" fill="#FFCB5A"/>
<path d="M457.425 21.6627C456.285 21.6627 454.917 21.2066 453.777 21.2066C447.164 21.2066 441.007 23.7149 436.903 28.0474C441.007 23.7149 447.164 20.9786 453.777 21.2066C455.145 21.2066 456.285 21.4347 457.425 21.6627Z" fill="#FFCB5A"/>
<path d="M512.836 54.0426C506.907 84.3704 462.67 117.206 438.043 127.696C430.974 130.66 417.064 133.853 400.418 136.817C395.401 137.729 389.929 138.641 384.456 139.325C369.634 141.605 353.9 143.43 339.534 144.798C333.378 145.482 327.677 145.938 322.204 146.166C311.487 146.85 302.366 147.306 296.209 147.078C293.473 147.078 291.42 146.85 289.824 146.622C286.176 145.938 282.527 145.482 278.651 145.026C262.461 143.202 243.534 142.518 220.732 134.993C211.838 132.028 194.508 125.872 174.442 118.347C167.601 115.838 160.532 113.102 153.235 110.366C145.482 107.401 137.501 104.437 129.748 101.472C122.907 98.7361 116.294 96.2278 109.91 93.7195C86.6507 84.3704 66.8122 75.9333 58.3752 70.9167C44.0094 62.2516 23.2588 37.1685 8.43694 15.9618C4.1044 9.80504 0.455944 4.33238 -2.50843 -0.68425C-6.15688 -6.84102 -8.6652 -11.6296 -9.34928 -14.366C-12.7697 -27.1356 -11.6296 -55.1831 -1.14026 -82.0904C-1.14026 -82.0904 -1.14026 -82.3185 -1.14026 -82.5465C18.4702 -46.9741 71.6008 -55.183 74.7932 -104.437C73.8811 -126.784 58.1472 -139.782 40.589 -143.202C42.6412 -145.482 44.4654 -147.763 46.2897 -149.587C46.5177 -149.815 46.7457 -150.271 46.9738 -150.499C47.6578 -151.411 48.57 -152.095 49.254 -153.007C49.7101 -153.463 50.1662 -153.919 50.6222 -154.376C51.3063 -155.06 51.9904 -155.744 52.4464 -156.428C52.9025 -156.884 53.1305 -157.112 53.5866 -157.568C54.0426 -158.024 54.4987 -158.708 55.1828 -159.164C55.4108 -159.392 55.8669 -159.848 56.0949 -160.076C56.779 -160.76 57.235 -161.216 57.6911 -161.672C57.9191 -161.672 58.1472 -162.128 58.3752 -162.356C59.0593 -163.041 59.7434 -163.497 60.1994 -163.953C62.7077 -165.777 66.5842 -167.601 71.1448 -169.425C84.1424 -174.214 104.437 -179.003 123.135 -185.159C131.344 -187.668 142.518 -188.808 156.655 -188.58C162.128 -188.58 167.829 -188.352 174.214 -187.896C183.107 -187.44 192.684 -186.527 202.945 -185.387C209.33 -184.703 216.171 -183.791 223.012 -182.879C240.798 -180.599 260.18 -177.862 280.931 -174.67C296.437 -172.39 315.363 -165.777 334.974 -157.34C340.218 -155.06 345.235 -152.779 350.48 -150.271C357.777 -146.851 365.074 -143.202 372.142 -139.554C377.387 -136.817 382.632 -134.081 387.648 -131.345C407.487 -120.627 425.045 -110.138 436.218 -103.297C447.164 -96.4562 456.057 -88.2472 463.81 -79.5821C467.686 -75.4776 471.107 -71.1451 474.299 -67.0406C482.964 -56.0952 490.489 -45.3779 498.014 -37.8529C514.432 -21.4349 517.853 23.9428 511.924 54.4986M321.976 146.622V146.85V146.622ZM25.9951 -125.644C27.1353 -125.872 28.0474 -126.328 29.1875 -126.328C30.5557 -126.328 31.6959 -126.784 33.064 -126.556C38.0807 -126.1 42.8692 -124.732 47.6578 -124.276C54.4987 -120.399 59.9714 -112.646 59.0593 -104.665H59.7434C54.7267 -93.2638 47.2018 -80.9503 34.4322 -79.3541C32.836 -79.126 31.2398 -78.8981 29.6436 -79.1261C28.9595 -79.1261 28.5034 -79.3541 27.8194 -79.5821C26.9072 -79.5821 25.9951 -79.8102 25.083 -80.2662C24.1709 -80.4943 23.4868 -81.1784 22.8027 -81.4064C22.1187 -81.6344 21.6626 -81.8624 20.9785 -82.3185C19.8384 -83.0026 18.9263 -83.9147 18.0141 -84.8268C17.7861 -85.0548 17.5581 -85.2828 17.3301 -85.5109C12.7695 -90.2995 9.57708 -96.6843 9.80511 -103.069C9.34906 -113.33 16.1899 -122.223 25.7671 -125.188M462.214 -125.872C448.988 -135.677 434.166 -143.886 420.256 -151.183C333.606 -193.596 238.518 -225.292 140.465 -215.031C74.1092 -208.874 4.1044 -186.756 -23.4871 -117.891C-37.1688 -87.5632 -45.8338 -54.271 -42.8695 -20.2947C-41.5013 -3.42061 -35.8006 14.3656 -25.7673 28.5034C-6.61294 55.6388 16.874 78.2136 43.0973 98.0521C56.3229 107.857 70.2327 116.75 85.7386 123.363C101.017 128.836 115.154 134.309 129.52 141.605C202.261 177.178 285.72 192 365.986 179.002C428.922 169.197 502.575 150.955 537.691 91.8953C582.385 13.6815 526.518 -78.2139 461.986 -126.1" fill="#FFCB5A"/>
</g>
</svg>
