<svg width="71" height="70" viewBox="0 0 71 70" fill="none" xmlns="http://www.w3.org/2000/svg">
<g filter="url(#filter0_d_4_6073)">
<path d="M35.7354 31C31.4729 31 27.8239 29.4823 24.7885 26.4469C21.7531 23.4115 20.2354 19.7625 20.2354 15.5C20.2354 11.2375 21.7531 7.58854 24.7885 4.55313C27.8239 1.51771 31.4729 0 35.7354 0C39.9979 0 43.6468 1.51771 46.6822 4.55313C49.7176 7.58854 51.2354 11.2375 51.2354 15.5C51.2354 19.7625 49.7176 23.4115 46.6822 26.4469C43.6468 29.4823 39.9979 31 35.7354 31ZM4.73535 62V51.15C4.73535 48.9542 5.30046 46.9359 6.43066 45.0953C7.56087 43.2547 9.06244 41.85 10.9354 40.8813C14.9395 38.8792 19.0083 37.3776 23.1416 36.3766C27.2749 35.3755 31.4729 34.875 35.7354 34.875C39.9979 34.875 44.1958 35.3755 48.3291 36.3766C52.4624 37.3776 56.5312 38.8792 60.5354 40.8813C62.4083 41.85 63.9098 43.2547 65.04 45.0953C66.1702 46.9359 66.7354 48.9542 66.7354 51.15V62H4.73535ZM12.4854 54.25H58.9854V51.15C58.9854 50.4396 58.8077 49.7938 58.4525 49.2125C58.0973 48.6313 57.6291 48.1792 57.0479 47.8563C53.5604 46.1125 50.0406 44.8047 46.4885 43.9328C42.9364 43.0609 39.352 42.625 35.7354 42.625C32.1187 42.625 28.5343 43.0609 24.9822 43.9328C21.4301 44.8047 17.9104 46.1125 14.4229 47.8563C13.8416 48.1792 13.3734 48.6313 13.0182 49.2125C12.663 49.7938 12.4854 50.4396 12.4854 51.15V54.25ZM35.7354 23.25C37.8666 23.25 39.6911 22.4911 41.2088 20.9734C42.7265 19.4557 43.4854 17.6313 43.4854 15.5C43.4854 13.3688 42.7265 11.5443 41.2088 10.0266C39.6911 8.50886 37.8666 7.75 35.7354 7.75C33.6041 7.75 31.7796 8.50886 30.2619 10.0266C28.7442 11.5443 27.9854 13.3688 27.9854 15.5C27.9854 17.6313 28.7442 19.4557 30.2619 20.9734C31.7796 22.4911 33.6041 23.25 35.7354 23.25Z" fill="#E3E9E9"/>
</g>
<defs>
<filter id="filter0_d_4_6073" x="0.735352" y="0" width="70" height="70" filterUnits="userSpaceOnUse" color-interpolation-filters="sRGB">
<feFlood flood-opacity="0" result="BackgroundImageFix"/>
<feColorMatrix in="SourceAlpha" type="matrix" values="0 0 0 0 0 0 0 0 0 0 0 0 0 0 0 0 0 0 127 0" result="hardAlpha"/>
<feOffset dy="4"/>
<feGaussianBlur stdDeviation="2"/>
<feComposite in2="hardAlpha" operator="out"/>
<feColorMatrix type="matrix" values="0 0 0 0 0 0 0 0 0 0 0 0 0 0 0 0 0 0 0.25 0"/>
<feBlend mode="normal" in2="BackgroundImageFix" result="effect1_dropShadow_4_6073"/>
<feBlend mode="normal" in="SourceGraphic" in2="effect1_dropShadow_4_6073" result="shape"/>
</filter>
</defs>
</svg>
