<svg width="792" height="99" viewBox="0 0 792 99" fill="none" xmlns="http://www.w3.org/2000/svg">
<g clip-path="url(#clip0_84_2130)">
<mask id="mask0_84_2130" style="mask-type:luminance" maskUnits="userSpaceOnUse" x="0" y="0" width="99" height="99">
<path d="M98.5714 0H0V98.5714H98.5714V0Z" fill="white"/>
</mask>
<g mask="url(#mask0_84_2130)">
<path d="M61.7723 64.2766C69.3547 57.6681 69.9808 47.651 65.807 41.9468C62.4679 37.3556 60.1028 34.2252 53.7725 29.8427C49.2509 26.6428 47.1639 27.408 45.564 29.4949L45.4249 29.7036C43.6162 32.6253 46.2596 35.06 49.1117 37.9817C52.2421 41.1816 57.1811 48.8336 52.6595 54.2595C48.5552 59.1985 41.8771 55.0247 38.7468 52.3813C35.0599 49.3901 31.5122 46.1901 29.5644 48.6249L29.3557 48.8336C27.5471 51.1291 28.9383 55.5116 31.0252 58.1551C37.2859 66.0853 49.7378 74.7112 61.7027 64.2071" fill="#C0573B"/>
</g>
</g>
<g clip-path="url(#clip1_84_2130)">
<mask id="mask1_84_2130" style="mask-type:luminance" maskUnits="userSpaceOnUse" x="99" y="0" width="99" height="99">
<path d="M197.571 0H99V98.5714H197.571V0Z" fill="white"/>
</mask>
<g mask="url(#mask1_84_2130)">
<path d="M183.798 38.6773C181.711 29.4253 170.581 25.5994 163.346 26.3646C155.555 27.2689 151.868 31.1644 149.92 34.3643C149.225 35.5469 149.016 36.9382 148.251 38.2599C147.694 39.0947 146.025 39.3034 145.26 39.3034C141.99 39.3034 139.625 39.7903 136.982 40.9729C135.382 41.7381 133.503 40.7642 133.295 40.6251C130.164 39.3034 128.982 38.1208 123.625 38.5382C115.139 39.1642 109.643 49.0422 110.826 54.8856C112.008 60.7985 114.304 63.581 117.017 65.5288C119.73 67.4766 126.06 71.233 133.573 67.2679C137.051 65.4592 140.112 61.6332 141.364 58.642C141.851 57.529 142.616 56.5551 143.799 56.1377C146.094 55.3029 151.033 54.1899 154.581 57.3203C157.781 60.1028 162.303 61.2158 166.894 60.7985C173.711 60.242 179.067 58.9202 182.685 51.6161C184.633 47.651 185.259 44.4511 183.867 38.6077M130.095 57.8072C126.617 59.9637 122.373 57.9464 121.399 54.6769C120.495 51.4074 124.669 46.8858 129.33 48.6944C133.503 50.2944 133.503 55.7203 130.095 57.8768M143.034 49.8074C141.295 49.3901 140.529 46.4684 141.99 45.4945C142.686 45.0076 143.66 44.451 146.999 45.2858C147.347 45.3554 147.903 45.7032 148.181 46.1901C148.529 46.7466 149.294 49.0422 147.277 49.4596C145.886 49.7379 144.286 50.0857 142.964 49.7379M173.363 46.538C171.694 52.5204 163.137 53.2856 159.033 48.8335C154.929 44.3815 157.225 38.1903 162.233 36.4513C167.242 34.7122 175.242 39.8599 173.363 46.6075" fill="#50C7BE"/>
</g>
</g>
<g clip-path="url(#clip2_84_2130)">
<mask id="mask2_84_2130" style="mask-type:luminance" maskUnits="userSpaceOnUse" x="198" y="0" width="99" height="99">
<path d="M296.571 0H198V98.5714H296.571V0Z" fill="white"/>
</mask>
<g mask="url(#mask2_84_2130)">
<path d="M241.408 65.4592C242.729 66.92 242.034 69.633 240.851 71.233C237.303 75.9633 229.095 81.6675 221.582 73.946C217.13 69.3548 216.504 59.4768 222.695 54.1899C225.06 51.9639 222.973 49.3901 220.817 46.9553C216.991 43.1989 214.347 37.1469 218.869 30.2601C222.556 24.5559 227.495 23.4429 231.182 25.3211C234.173 26.8515 236.956 28.6601 240.155 31.9296C241.477 33.3209 241.547 35.4774 240.155 36.8686C238.903 38.1903 236.816 38.399 235.356 37.286C233.825 36.0339 231.599 35.2687 229.512 37.7034C227.565 39.999 228.399 41.8076 229.651 43.1293C231.182 44.6597 231.112 47.0945 229.651 48.6944C229.651 48.764 229.651 48.764 229.651 48.764C228.678 49.7379 228.608 51.6856 230.138 52.9378C230.347 53.1465 230.556 53.3552 230.764 53.5639C231.947 54.9551 231.877 57.1116 230.556 58.3637C229.095 59.755 226.938 63.0941 229.164 65.5288C231.182 67.7548 234.243 65.8766 235.703 64.7636C237.373 63.4419 239.808 63.7897 241.269 65.3897L241.408 65.5288V65.4592ZM264.572 23.0951C254.903 18.2952 248.851 24.8342 246.486 30.2601C245.721 32.0688 245.721 34.8513 247.321 35.9643L247.46 36.1034C249.199 37.3556 251.633 37.0773 253.025 35.4078C254.138 33.947 256.712 31.4427 259.216 33.1122C261.929 34.9209 260.607 38.6773 259.564 40.4164C258.59 42.0163 259.007 44.0337 260.538 45.1467C262.068 46.2597 264.364 46.8162 266.59 44.5206C269.79 41.3207 270.485 39.0947 271.668 35.9643C273.129 32.1383 270.694 26.2254 264.572 23.2342M261.72 52.3813L261.581 52.5204C259.912 53.8421 259.494 56.2768 260.746 58.0159C261.79 59.5463 262.485 61.7028 259.981 63.3723C257.546 65.0418 255.877 64.6245 254.694 63.5114C253.929 62.6071 253.581 60.7985 255.181 59.5463C255.251 59.4768 255.32 59.4072 255.39 59.3376C257.964 57.042 259.216 53.703 258.729 50.2248C258.103 45.8423 256.99 42.4337 251.425 40.2077C248.434 39.0251 246.068 38.6773 241.755 39.5816C234.938 41.0424 231.599 48.4162 233.269 52.8682C234.938 57.3203 237.164 60.1724 239.599 61.4245C240.851 62.0506 243.216 62.468 245.86 62.3984H245.999H246.208C247.112 62.6071 248.086 63.4419 248.016 64.4853C247.807 65.3896 247.947 66.3635 248.225 67.3374C249.477 71.3721 252.399 73.8068 256.225 75.4068C260.051 77.0067 264.572 77.5633 269.163 72.5547C276.468 64.6245 271.459 56.1377 266.868 52.4508C265.337 51.1987 263.181 51.1987 261.651 52.4508" fill="#FFCB5A"/>
</g>
</g>
<g clip-path="url(#clip3_84_2130)">
<mask id="mask3_84_2130" style="mask-type:luminance" maskUnits="userSpaceOnUse" x="297" y="0" width="99" height="99">
<path d="M395.571 0H297V98.5714H395.571V0Z" fill="white"/>
</mask>
<g mask="url(#mask3_84_2130)">
<path d="M363.572 54.816C365.103 50.6422 365.311 47.4423 363.364 41.7381C360.303 32.7644 348.407 29.008 341.729 31.7209C334.982 34.4339 330.877 37.7034 329.208 41.112C327.608 44.5206 327.956 53.9812 331.643 59.2681C335.399 64.5549 342.147 66.9896 348.825 65.6679C355.503 64.3462 360.72 62.5376 363.503 54.816M339.781 54.5378C335.19 50.5726 336.86 44.1032 341.66 41.8772C346.46 39.6512 354.946 43.8945 353.833 50.7118C352.859 56.8334 344.373 58.5029 339.781 54.5378Z" fill="#373B38"/>
</g>
</g>
<g clip-path="url(#clip4_84_2130)">
<mask id="mask4_84_2130" style="mask-type:luminance" maskUnits="userSpaceOnUse" x="396" y="0" width="99" height="99">
<path d="M494.571 0H396V98.5714H494.571V0Z" fill="white"/>
</mask>
<g mask="url(#mask4_84_2130)">
<path d="M462.085 60.6594C459.72 66.8505 432.173 75.9633 429.808 69.007C427.443 61.9811 447.616 58.7811 448.799 52.9378C449.912 47.5119 427.164 26.3646 432.312 22.6081C437.738 18.7126 467.442 46.6075 462.085 60.6594Z" fill="#C0573B"/>
</g>
</g>
<g clip-path="url(#clip5_84_2130)">
<mask id="mask5_84_2130" style="mask-type:luminance" maskUnits="userSpaceOnUse" x="495" y="0" width="99" height="99">
<path d="M593.571 0H495V98.5714H593.571V0Z" fill="white"/>
</mask>
<g mask="url(#mask5_84_2130)">
<path d="M539.381 38.399C537.155 43.6163 528.947 51.9639 526.86 55.7203C524.704 59.4768 517.399 68.7983 513.504 66.5722C509.608 64.3462 513.504 58.4333 515.73 55.303C518.025 52.1726 521.086 48.9031 525.26 43.0598C529.364 37.2165 532.356 30.3297 534.929 26.9906C537.503 23.6516 541.468 19.8256 545.016 23.0255C548.216 25.8776 541.747 33.1122 539.451 38.3295M578.059 33.2513C574.511 30.0514 570.546 33.8078 567.972 37.2165C562.755 43.8946 560.529 49.877 558.859 52.3117C554.755 58.1551 552.459 62.0506 550.164 65.2505C547.868 68.3809 544.668 74.4329 548.564 76.6589C552.459 78.885 558.372 68.7287 560.529 64.9723C562.685 61.2159 567.137 55.0247 570.685 50.2944C574.094 45.7728 581.259 36.173 578.059 33.3209M529.643 71.8591C533.26 74.9894 537.155 71.0939 539.66 67.6853C542.164 64.2766 545.92 57.042 549.955 51.1292C553.92 45.2163 556.981 41.9468 559.207 38.7469C561.433 35.5469 565.12 29.5645 561.155 27.408C557.19 25.2515 550.094 34.7817 548.007 38.5382C545.92 42.3642 537.016 51.1292 534.86 56.416C532.703 61.6332 526.373 69.007 529.643 71.8591Z" fill="#50C7BE"/>
</g>
</g>
<g clip-path="url(#clip6_84_2130)">
<mask id="mask6_84_2130" style="mask-type:luminance" maskUnits="userSpaceOnUse" x="594" y="0" width="99" height="99">
<path d="M692.571 0H594V98.5714H692.571V0Z" fill="white"/>
</mask>
<g mask="url(#mask6_84_2130)">
<path d="M632.886 32.9035C632.399 38.1208 627.877 38.5382 627.738 42.2946C627.599 46.051 631.982 48.764 631.842 54.0508C631.703 59.3376 628.573 62.8158 624.608 65.7375C620.643 68.6591 615.356 69.7026 613.617 66.92C609.373 60.3115 623.008 59.755 622.173 53.8421C621.825 51.4074 615.912 50.5726 615.843 45.8423C615.773 40.4859 623.634 38.6773 624.121 34.7817C624.886 29.008 618.625 29.1471 621.895 23.7211C625.651 19.6865 633.373 27.6167 632.886 32.9035ZM666.902 66.8505C668.224 61.7724 662.798 55.1638 663.981 51.5465C665.163 47.9292 669.615 48.6249 672.189 44.0337C673.998 40.8337 673.163 35.6165 670.241 31.9296C666.833 27.6863 663.772 26.7124 661.198 28.0341C657.094 30.1905 663.703 36.2426 661.198 40.5555C659.946 42.712 654.729 42.6424 653.477 47.2336C651.946 53.0074 657.164 53.8421 657.372 61.9115C657.511 67.7548 648.677 70.9547 652.433 74.7807C656.468 77.8415 665.442 71.9982 666.763 66.92M649.094 62.5375C651.251 55.2334 644.225 49.2509 645.686 45.7032C647.146 42.225 651.39 41.9468 653.477 37.0078C655.077 33.3209 654.59 29.8427 651.459 25.4602C648.329 21.0777 642.347 18.2952 638.729 21.9125C634.834 25.808 646.659 30.121 644.433 34.5035C642.833 37.7034 638.521 36.3121 635.947 42.3641C633.86 47.3031 641.581 53.4247 640.468 57.1812C638.868 62.7462 632.19 64.7636 635.181 69.0765C639.147 73.1112 647.216 69.1461 649.164 62.468" fill="#FFCB5A"/>
</g>
</g>
<mask id="mask7_84_2130" style="mask-type:luminance" maskUnits="userSpaceOnUse" x="693" y="0" width="99" height="99">
<path d="M791.57 0H693V98.57H791.57V0Z" fill="white"/>
</mask>
<g mask="url(#mask7_84_2130)">
<path d="M764.51 59.3368C766.458 53.9805 766.736 49.8763 764.232 42.5722C760.267 31.0944 745.102 26.2946 736.476 29.7727C727.851 33.2509 722.564 37.4246 720.477 41.807C718.39 46.1199 718.808 58.2933 723.607 65.0409C728.407 71.7885 737.103 74.9883 745.659 73.2493C754.215 71.5798 760.962 69.2146 764.51 59.3368ZM730.842 61.9801C722.564 54.7457 725.555 43.1983 734.181 39.1637C742.807 35.129 758.11 42.7809 756.163 55.163C754.354 66.1539 739.12 69.2146 730.842 62.0497M748.233 46.3286C753.311 50.8502 751.502 58.2238 746.146 60.728C740.859 63.3018 731.398 58.4325 732.651 50.6415C733.764 43.6852 743.154 41.7375 748.163 46.3286" fill="#50C7BE"/>
</g>
<defs>
<clipPath id="clip0_84_2130">
<rect width="98.5714" height="98.5714" fill="white"/>
</clipPath>
<clipPath id="clip1_84_2130">
<rect width="98.5714" height="98.5714" fill="white" transform="translate(99)"/>
</clipPath>
<clipPath id="clip2_84_2130">
<rect width="98.5714" height="98.5714" fill="white" transform="translate(198)"/>
</clipPath>
<clipPath id="clip3_84_2130">
<rect width="98.5714" height="98.5714" fill="white" transform="translate(297)"/>
</clipPath>
<clipPath id="clip4_84_2130">
<rect width="98.5714" height="98.5714" fill="white" transform="translate(396)"/>
</clipPath>
<clipPath id="clip5_84_2130">
<rect width="98.5714" height="98.5714" fill="white" transform="translate(495)"/>
</clipPath>
<clipPath id="clip6_84_2130">
<rect width="98.5714" height="98.5714" fill="white" transform="translate(594)"/>
</clipPath>
</defs>
</svg>
