<svg width="73" height="73" viewBox="0 0 73 73" fill="none" xmlns="http://www.w3.org/2000/svg">
<g clip-path="url(#clip0_4_6075)" filter="url(#filter0_d_4_6075)">
<path d="M36.2354 41.125C40.7227 41.125 44.3604 37.4873 44.3604 33C44.3604 28.5127 40.7227 24.875 36.2354 24.875C31.748 24.875 28.1104 28.5127 28.1104 33C28.1104 37.4873 31.748 41.125 36.2354 41.125Z" stroke="white" stroke-width="4" stroke-linecap="round" stroke-linejoin="round"/>
<path d="M56.2769 41.125C55.9164 41.9419 55.8089 42.848 55.9682 43.7266C56.1275 44.6052 56.5463 45.4159 57.1707 46.0542L57.3332 46.2167C57.8368 46.7197 58.2363 47.3171 58.5089 47.9747C58.7815 48.6323 58.9218 49.3371 58.9218 50.049C58.9218 50.7608 58.7815 51.4657 58.5089 52.1232C58.2363 52.7808 57.8368 53.3782 57.3332 53.8813C56.8301 54.3849 56.2327 54.7844 55.5752 55.057C54.9176 55.3296 54.2127 55.4699 53.5009 55.4699C52.7891 55.4699 52.0842 55.3296 51.4266 55.057C50.7691 54.7844 50.1717 54.3849 49.6686 53.8813L49.5061 53.7188C48.8678 53.0944 48.0571 52.6755 47.1785 52.5162C46.3 52.3569 45.3938 52.4645 44.5769 52.825C43.7759 53.1683 43.0927 53.7384 42.6115 54.465C42.1303 55.1916 41.8721 56.0431 41.8686 56.9146V57.375C41.8686 58.8116 41.2979 60.1893 40.2821 61.2052C39.2663 62.221 37.8885 62.7917 36.4519 62.7917C35.0153 62.7917 33.6376 62.221 32.6218 61.2052C31.606 60.1893 31.0353 58.8116 31.0353 57.375V57.1313C31.0143 56.2348 30.7241 55.3654 30.2025 54.6361C29.6808 53.9067 28.9518 53.3512 28.1103 53.0417C27.2934 52.6811 26.3872 52.5736 25.5087 52.7329C24.6301 52.8922 23.8194 53.311 23.1811 53.9354L23.0186 54.0979C22.5155 54.6015 21.9181 55.0011 21.2606 55.2737C20.603 55.5463 19.8981 55.6866 19.1863 55.6866C18.4745 55.6866 17.7696 55.5463 17.1121 55.2737C16.4545 55.0011 15.8571 54.6015 15.354 54.0979C14.8504 53.5949 14.4509 52.9975 14.1783 52.3399C13.9057 51.6823 13.7654 50.9775 13.7654 50.2656C13.7654 49.5538 13.9057 48.8489 14.1783 48.1914C14.4509 47.5338 14.8504 46.9364 15.354 46.4333L15.5165 46.2708C16.1409 45.6325 16.5597 44.8218 16.719 43.9433C16.8783 43.0647 16.7708 42.1585 16.4103 41.3417C16.067 40.5406 15.4969 39.8575 14.7703 39.3763C14.0437 38.895 13.1922 38.6368 12.3207 38.6333H11.8603C10.4237 38.6333 9.04593 38.0627 8.03011 37.0468C7.01429 36.031 6.4436 34.6533 6.4436 33.2167C6.4436 31.7801 7.01429 30.4023 8.03011 29.3865C9.04593 28.3707 10.4237 27.8 11.8603 27.8H12.104C13.0005 27.779 13.8699 27.4889 14.5992 26.9672C15.3285 26.4456 15.8841 25.7166 16.1936 24.875C16.5541 24.0581 16.6617 23.152 16.5024 22.2734C16.3431 21.3948 15.9242 20.5841 15.2999 19.9458L15.1374 19.7833C14.6337 19.2803 14.2342 18.6829 13.9616 18.0253C13.689 17.3677 13.5487 16.6629 13.5487 15.9511C13.5487 15.2392 13.689 14.5344 13.9616 13.8768C14.2342 13.2192 14.6337 12.6218 15.1374 12.1188C15.6404 11.6151 16.2378 11.2156 16.8954 10.943C17.553 10.6704 18.2578 10.5301 18.9696 10.5301C19.6815 10.5301 20.3863 10.6704 21.0439 10.943C21.7015 11.2156 22.2989 11.6151 22.8019 12.1188L22.9644 12.2813C23.6027 12.9056 24.4134 13.3245 25.292 13.4838C26.1706 13.6431 27.0767 13.5355 27.8936 13.175H28.1103C28.9113 12.8317 29.5945 12.2616 30.0757 11.535C30.5569 10.8084 30.8151 9.95693 30.8186 9.08543V8.62501C30.8186 7.18842 31.3893 5.81067 32.4051 4.79485C33.4209 3.77903 34.7987 3.20834 36.2353 3.20834C37.6719 3.20834 39.0496 3.77903 40.0654 4.79485C41.0813 5.81067 41.6519 7.18842 41.6519 8.62501V8.86876C41.6554 9.74026 41.9136 10.5917 42.3949 11.3184C42.8761 12.045 43.5592 12.615 44.3603 12.9583C45.1771 13.3189 46.0833 13.4264 46.9619 13.2671C47.8404 13.1078 48.6511 12.689 49.2894 12.0646L49.4519 11.9021C49.955 11.3985 50.5524 10.9989 51.21 10.7264C51.8675 10.4538 52.5724 10.3135 53.2842 10.3135C53.9961 10.3135 54.7009 10.4538 55.3585 10.7264C56.0161 10.9989 56.6135 11.3985 57.1165 11.9021C57.6201 12.4052 58.0197 13.0026 58.2923 13.6601C58.5649 14.3177 58.7052 15.0225 58.7052 15.7344C58.7052 16.4462 58.5649 17.1511 58.2923 17.8086C58.0197 18.4662 57.6201 19.0636 57.1165 19.5667L56.954 19.7292C56.3297 20.3675 55.9108 21.1782 55.7515 22.0567C55.5922 22.9353 55.6998 23.8415 56.0603 24.6583V24.875C56.4036 25.676 56.9736 26.3592 57.7003 26.8404C58.4269 27.3216 59.2784 27.5799 60.1499 27.5833H60.6103C62.0469 27.5833 63.4246 28.154 64.4404 29.1698C65.4563 30.1857 66.0269 31.5634 66.0269 33C66.0269 34.4366 65.4563 35.8143 64.4404 36.8302C63.4246 37.846 62.0469 38.4167 60.6103 38.4167H60.3665C59.495 38.4201 58.6436 38.6784 57.9169 39.1596C57.1903 39.6408 56.6203 40.324 56.2769 41.125Z" stroke="white" stroke-width="4" stroke-linecap="round" stroke-linejoin="round"/>
</g>
<defs>
<filter id="filter0_d_4_6075" x="-0.264648" y="0.5" width="73" height="73" filterUnits="userSpaceOnUse" color-interpolation-filters="sRGB">
<feFlood flood-opacity="0" result="BackgroundImageFix"/>
<feColorMatrix in="SourceAlpha" type="matrix" values="0 0 0 0 0 0 0 0 0 0 0 0 0 0 0 0 0 0 127 0" result="hardAlpha"/>
<feOffset dy="4"/>
<feGaussianBlur stdDeviation="2"/>
<feComposite in2="hardAlpha" operator="out"/>
<feColorMatrix type="matrix" values="0 0 0 0 0 0 0 0 0 0 0 0 0 0 0 0 0 0 0.25 0"/>
<feBlend mode="normal" in2="BackgroundImageFix" result="effect1_dropShadow_4_6075"/>
<feBlend mode="normal" in="SourceGraphic" in2="effect1_dropShadow_4_6075" result="shape"/>
</filter>
<clipPath id="clip0_4_6075">
<rect width="65" height="65" fill="white" transform="translate(3.73535 0.5)"/>
</clipPath>
</defs>
</svg>
